<?xml version="1.0" encoding="utf-8"?>
<!-- Generator: Adobe Illustrator 19.1.1, SVG Export Plug-In . SVG Version: 6.00 Build 0)  -->
<svg version="1.1" id="Layer_1" xmlns="http://www.w3.org/2000/svg" xmlns:xlink="http://www.w3.org/1999/xlink" x="0px" y="0px"
	 viewBox="0 0 272.5 69.3" style="enable-background:new 0 0 272.5 69.3;" xml:space="preserve">
<style type="text/css">
	.st0{clip-path:url(#SVGID_1_);fill:#D32027;}
	.st1{fill-rule:evenodd;clip-rule:evenodd;fill:#FFFFFF;}
	.st2{fill:#FFFFFF;}
</style>
<g>
	<g>
		<g>
			<g>
				<defs>
					
						<rect id="SVGID_3_" x="0.1" y="0.2" transform="matrix(-1 -1.541692e-003 1.541692e-003 -1 272.4954 69.5133)" width="272.4" height="68.9"/>
				</defs>
				<use xlink:href="#SVGID_3_"  style="overflow:visible;fill-rule:evenodd;clip-rule:evenodd;fill:#AD6796;"/>
				<clipPath id="SVGID_1_">
					<use xlink:href="#SVGID_3_"  style="overflow:visible;"/>
				</clipPath>
				
					<rect x="204" y="-7.2" transform="matrix(1.537545e-003 -1 1 1.537545e-003 214.0362 292.1392)" class="st0" width="98.7" height="92.1"/>
			</g>
			<path class="st1" d="M49,36.5l0-14.3c0-6.5-3.8-11.4-11.9-11.4l-13.9,0c-7.2,0-10.5,5.9-10.5,11.4l0,14.3
				c0,5.7,2.8,10.8,9.7,10.8l16.6,0C44,47.3,49,43.3,49,36.5z M35.2,35.1l-8.8,0l0-11.9l8.8,0L35.2,35.1z"/>
			<path class="st1" d="M66.1,28.2l0-11c0-4.4-2.7-7.1-7-7.1c-4.1,0-6.9,2.8-6.9,7.1l0,10.9c0,4.2,2.7,7,7,7
				C63.4,35.1,66.1,32.3,66.1,28.2z"/>
			<path class="st1" d="M103.7,16.8c0-1.9-0.7-3.8-2.2-5c-1.2-1-2.4-1.4-3.7-1.4c-2.4,0-4.8,1.4-6.3,3.2l-3.8,4.5l-6.3-5.7
				c-1.5-1.4-3.4-2.1-5.3-2.1c-0.4,0-0.7,0.1-1.1,0.1c-3.4,0.5-5.5,3.5-5.5,6.5c0,0.3,0,0.6,0.1,0.9c0.2,1.3,0.8,2.6,1.9,3.6
				L87,35.1l-11,0c-5.4,0-7.4,3-7.4,6.5c0,3.4,2.4,5.8,7.4,5.8l16.3,0c4,0,9.2-2.4,10.1-7.6c0.2-0.9,0.2-1.7,0.2-2.5
				c0-3.5-1.5-6.8-5.4-10.7l4.8-5.3C103.1,20.1,103.7,18.4,103.7,16.8z"/>
			<path class="st1" d="M140.3,16.8c0-1.9-0.7-3.8-2.2-5c-1.2-1-2.4-1.4-3.7-1.4c-2.4,0-4.8,1.4-6.3,3.2l-3.8,4.5l-6.3-5.7
				c-1.5-1.4-3.4-2.1-5.3-2.1c-0.4,0-0.7,0.1-1.1,0.1c-3.4,0.5-5.5,3.5-5.5,6.5c0,0.3,0,0.6,0.1,0.9c0.2,1.3,0.8,2.6,1.9,3.6
				l15.6,13.8l-11,0c-5.4,0-7.4,3-7.4,6.5c0,3.4,2.4,5.8,7.4,5.8l16.3,0c4,0,9.2-2.4,10.1-7.6c0.2-0.9,0.2-1.7,0.2-2.5
				c0-3.5-1.5-6.8-5.4-10.7l4.8-5.3C139.7,20.1,140.3,18.5,140.3,16.8z"/>
			<path class="st1" d="M156.8,41.1l0-23.8c0-4.4-2.7-7.1-7-7.1c-4.1,0-6.9,2.8-6.9,7.1l0,23.7c0,4.2,2.7,7,7,7
				C154.1,48,156.8,45.2,156.8,41.1z"/>
			<path class="st1" d="M196.9,36.2l0-10c0-8.8-5.4-16-16.4-16c-2.9,0-5.8,0.8-8.2,2.5c-2.5-2-4.2-3.2-6.3-3.2
				c-3.7,0-6.4,2.4-6.5,5.8c0,2,1,4.4,3.4,6.3c-1.7,2.6-2,4.8-2,7.7l0,11.2c0,5.5,2.7,7.5,6.8,7.5c4,0,6.8-2.4,6.8-7.5l0.1-12.1
				c0-3,1.7-5.8,4.6-5.8c2.8,0,4.7,2.1,4.7,5.9l0,6.8l-2.1,0c-3.7,0-5.7,3.2-5.7,6.3c0,3,1.9,6,6,6l4.3,0
				C192.6,47.6,196.9,43.5,196.9,36.2z"/>
			<path class="st2" d="M254.7,8c4.5,2.3,6.3,7.7,4,12.1c-2.3,4.4-7.8,6.2-12.3,3.9c-4.5-2.3-6.3-7.7-4-12.1
				C244.8,7.5,250.3,5.7,254.7,8z M252.2,12.9c-1.7-0.9-3.8-0.2-4.7,1.5c-0.9,1.7-0.2,3.8,1.5,4.6c1.7,0.9,3.8,0.2,4.7-1.5
				C254.5,15.9,253.9,13.8,252.2,12.9z"/>
			<path class="st2" d="M242.6,31.1c8.4,4.2,11.7,14.3,7.4,22.6c-4.3,8.3-14.5,11.5-22.9,7.3c-8.4-4.2-11.7-14.3-7.4-22.6
				C224,30.1,234.2,26.9,242.6,31.1z M240,36c-5.6-2.8-12.4-0.6-15.3,4.9c-2.9,5.5-0.6,12.3,4.9,15.1c5.6,2.8,12.4,0.6,15.3-4.9
				C247.8,45.6,245.6,38.9,240,36z"/>
			<path class="st2" d="M230.1,19.5c10.9,2.1,21.1,7.2,29.3,14.6c2.8,2.5-1,6.6-3.8,4.1c-7.4-6.7-16.7-11.3-26.6-13.2
				C225.3,24.3,226.4,18.8,230.1,19.5z"/>
		</g>
		<g>
			<path class="st2" d="M21.2,56.7c0,0.8-0.3,1.7-1,2.5c-0.6,0.7-1.3,1.5-2.2,2.3c-0.2,0.2-0.5,0.3-0.7,0.3c-0.2,0-0.3-0.1-0.5-0.2
				c-0.2-0.2-0.2-0.4-0.2-0.6c0-0.2,0.1-0.4,0.2-0.5c0.5-0.5,1.2-1.2,2-2.1c0.5-0.6,0.8-1.1,0.8-1.6c0-0.4-0.1-0.8-0.4-1
				c-0.3-0.2-0.6-0.4-1.1-0.4l-2.4,0c-0.3,0-0.5-0.1-0.6-0.2c-0.1-0.1-0.1-0.3-0.1-0.6l0-2.1c0-0.4,0.1-0.6,0.2-0.7
				c0.1-0.1,0.3-0.2,0.6-0.2c0.5,0,0.8,0.3,0.8,0.9l0,1.5l1.7,0c1,0,1.8,0.3,2.3,0.7C20.9,55.2,21.2,55.8,21.2,56.7z"/>
			<path class="st2" d="M29.6,60.9c0,0.2-0.1,0.4-0.3,0.6c-0.2,0.2-0.4,0.3-0.6,0.3c-0.2,0-0.4-0.1-0.6-0.4l-4.2-6
				c0,0-0.1-0.1-0.1-0.1c-0.1,0-0.1,0-0.1,0.1l0,5.5c0,0.6-0.3,0.8-0.8,0.8c-0.5,0-0.8-0.3-0.8-0.8l0-5.5c0-0.5,0.1-0.9,0.4-1.2
				c0.3-0.3,0.6-0.4,1.1-0.4c0.4,0,0.8,0.1,1.1,0.3c0.2,0.1,0.4,0.3,0.7,0.7l1.1,1.6l1.6-2c0.2-0.3,0.4-0.4,0.7-0.4
				c0.2,0,0.4,0.1,0.6,0.3c0.2,0.2,0.3,0.4,0.3,0.6c0,0.2-0.1,0.4-0.3,0.6l-1.9,2.2l1.9,2.8C29.5,60.6,29.6,60.8,29.6,60.9z"/>
			<path class="st2" d="M35.8,61c0,0.3-0.1,0.6-0.2,0.7c-0.1,0.1-0.3,0.2-0.6,0.2c-0.3,0-0.5-0.1-0.6-0.2c-0.1-0.1-0.2-0.3-0.2-0.7
				l0-4c0-0.5-0.1-0.9-0.4-1.1c-0.2-0.3-0.6-0.4-1.1-0.4l-2.1,0c-0.3,0-0.5-0.1-0.6-0.2c-0.1-0.1-0.2-0.3-0.2-0.6c0-0.1,0-0.3,0-0.3
				c0-0.1,0.1-0.2,0.1-0.2c0.1-0.1,0.2-0.1,0.3-0.1c0.1,0,0.2,0,0.4,0l2.4,0c0.4,0,0.8,0.1,1.2,0.2c0.3,0.1,0.6,0.3,0.9,0.6
				c0.2,0.3,0.4,0.6,0.5,0.9c0.1,0.4,0.2,0.8,0.2,1.3L35.8,61z"/>
			<path class="st2" d="M45.7,57.3c0,1.5-0.4,2.6-1.2,3.4c-0.8,0.8-1.9,1.2-3.2,1.2c-1.4,0-2.4-0.4-3.1-1.1
				c-0.8-0.7-1.1-1.8-1.1-3.3l0-2.8c0-0.4,0-0.7,0.1-0.8c0.1-0.1,0.3-0.2,0.6-0.2c0.3,0,0.5,0.1,0.6,0.2c0.1,0.1,0.2,0.4,0.2,0.8
				l0,2.8c0,1.9,0.9,2.9,2.8,2.9c0.9,0,1.5-0.3,2-0.8c0.5-0.5,0.7-1.3,0.7-2.3l0-2.6c0-0.4,0.1-0.7,0.2-0.8c0.1-0.1,0.3-0.2,0.6-0.2
				c0.3,0,0.5,0.1,0.6,0.2c0.1,0.1,0.2,0.4,0.2,0.8L45.7,57.3z M42.1,58.1c0,0.6-0.3,1-0.8,1c-0.5,0-0.8-0.3-0.8-1l0-3.3
				c0-0.4,0.1-0.6,0.2-0.8c0.1-0.1,0.3-0.2,0.6-0.2c0.5,0,0.8,0.3,0.8,1L42.1,58.1z"/>
			<path class="st2" d="M48.4,57.7c0,0.2,0,0.3,0,0.4c0,0.1-0.1,0.2-0.1,0.3c-0.1,0.1-0.1,0.1-0.2,0.1c-0.1,0-0.2,0-0.3,0
				c-0.3,0-0.5-0.1-0.6-0.2c-0.1-0.1-0.2-0.4-0.2-0.7l0-2.8c0-0.4,0.1-0.6,0.2-0.8c0.1-0.1,0.3-0.2,0.6-0.2c0.3,0,0.5,0.1,0.6,0.2
				c0.1,0.1,0.2,0.4,0.2,0.8L48.4,57.7z"/>
			<path class="st2" d="M56.1,61c0,0.5-0.2,0.7-0.7,0.7l-5.7,0c-0.3,0-0.5-0.1-0.6-0.2C49.1,61.5,49,61.3,49,61
				c0-0.3,0.1-0.5,0.2-0.6c0.1-0.1,0.3-0.2,0.6-0.2l2,0c0.8,0,1.3-0.2,1.7-0.5c0.3-0.4,0.5-1,0.5-1.9c0-0.9-0.2-1.5-0.7-1.9
				c-0.4-0.3-0.9-0.5-1.5-0.5l-1.7,0c-0.5,0-0.8-0.2-0.8-0.7c0-0.3,0.1-0.5,0.2-0.6c0.1-0.1,0.3-0.2,0.6-0.2l1.8,0
				c1.2,0,2,0.3,2.6,0.9c0.6,0.6,0.9,1.4,0.9,2.5c0,1.2-0.3,2.1-0.9,2.7c-0.1,0.1-0.1,0.1-0.1,0.1c0,0,0,0,0.1,0l0.8,0
				C55.9,60.3,56.1,60.5,56.1,61z"/>
			<path class="st2" d="M63.9,61c0,0.3-0.1,0.6-0.2,0.7c-0.1,0.1-0.3,0.2-0.6,0.2c-0.3,0-0.5-0.1-0.6-0.2c-0.1-0.1-0.2-0.3-0.2-0.7
				l0-6.1l-0.4,0c-0.6,0-0.8-0.2-0.8-0.7c0-0.5,0.3-0.8,0.8-0.8l1.2,0c0.5,0,0.8,0.3,0.8,0.8L63.9,61z"/>
			<path class="st2" d="M70,53.3c0,0.1-0.1,0.3-0.1,0.5l-0.9,2.2c-0.1,0.3-0.3,0.4-0.6,0.4c-0.1,0-0.2-0.1-0.3-0.2
				c-0.1-0.1-0.1-0.2-0.1-0.4l0.6-2.5c0.1-0.4,0.4-0.6,0.8-0.6l0.1,0c0.1,0,0.2,0,0.3,0c0.1,0,0.2,0.1,0.2,0.1
				c0.1,0.1,0.1,0.1,0.1,0.2C70,53.1,70,53.2,70,53.3z"/>
			<path class="st2" d="M78.2,57.9c0,1.2-0.4,2.1-1.2,2.9c-0.8,0.8-1.7,1.2-2.7,1.2c-1.1,0-2-0.4-2.7-1.2c-0.8-0.8-1.1-1.8-1.1-3
				c0-1.2,0.3-2.2,1-2.9c0.7-0.8,1.6-1.2,2.8-1.2c1.2,0,2.2,0.4,3,1.2C77.9,55.7,78.2,56.7,78.2,57.9z M76.6,57.9
				c0-0.8-0.2-1.4-0.6-1.9c-0.4-0.5-1-0.8-1.7-0.8c-0.8,0-1.4,0.3-1.8,0.8c-0.4,0.5-0.5,1.1-0.5,1.8c0,0.8,0.2,1.4,0.6,1.9
				c0.4,0.5,1,0.8,1.7,0.8c0.7,0,1.2-0.3,1.7-0.8C76.4,59.3,76.6,58.7,76.6,57.9z"/>
			<path class="st2" d="M86.5,58.3c0,2.4-1.1,3.6-3.3,3.6c-0.2,0-0.3,0-0.4,0c-0.1,0-0.2,0-0.3,0c-0.4-0.1-0.6-0.3-0.6-0.6
				c0,0,0-0.1,0-0.1c0,0,0-0.1,0-0.1c0-0.4,0.2-0.7,0.6-0.7c0,0,0.1,0,0.1,0c0,0,0.1,0,0.1,0c0.1,0,0.2,0,0.3,0c0.1,0,0.2,0,0.2,0
				c0.7,0,1.1-0.2,1.4-0.5c0.3-0.3,0.4-0.9,0.4-1.6l0-0.6c0-1.6-0.7-2.4-2.1-2.4c-0.8,0-1.4,0.2-1.7,0.7c-0.3,0.4-0.5,1-0.5,1.9
				l0,3.1c0,0.6-0.3,0.9-0.8,0.9c-0.5,0-0.8-0.3-0.8-0.9l0-3.4c0-1.1,0.3-2,0.9-2.7c0.6-0.7,1.6-1,2.8-1c1.2,0,2.1,0.3,2.7,0.9
				c0.6,0.6,0.9,1.5,0.9,2.7L86.5,58.3z"/>
			<path class="st2" d="M97.1,60.9c0,0.2,0,0.4,0,0.5c0,0.1-0.1,0.2-0.1,0.3c-0.1,0.1-0.1,0.1-0.2,0.2c-0.1,0-0.2,0.1-0.4,0.1
				c-0.1,0-0.3,0-0.4-0.1c-0.1,0-0.2-0.1-0.2-0.2c-0.1-0.1-0.1-0.2-0.1-0.3c0-0.1,0-0.3,0-0.5l0-3.8c0-0.6-0.2-1.1-0.5-1.3
				c-0.3-0.3-0.8-0.4-1.4-0.4c-0.7,0-1.2,0.1-1.4,0.2c-0.3,0.2-0.5,0.5-0.5,1c0,0.2,0,0.4,0,0.6l0.2,1.9c0,0.1,0,0.1,0,0.2
				c0,0.1,0,0.1,0,0.2c0,0.7-0.2,1.2-0.6,1.6c-0.4,0.5-1,0.7-1.7,0.7l-0.1,0c-0.4,0-0.6-0.2-0.6-0.7c0-0.5,0.2-0.7,0.7-0.7l0.1,0
				c0.5,0,0.7-0.3,0.7-0.8c0,0,0-0.1,0-0.1c0,0,0-0.1,0-0.1l-0.2-1.9c0-0.4-0.1-0.8-0.1-1c0-1.6,1.2-2.5,3.4-2.5
				c1.2,0,2,0.2,2.6,0.7c0.6,0.5,0.9,1.3,0.8,2.4L97.1,60.9z"/>
			<path class="st2" d="M100.1,61.1c0,0.3-0.1,0.6-0.2,0.7c-0.1,0.1-0.3,0.2-0.6,0.2c-0.3,0-0.5-0.1-0.6-0.2
				c-0.1-0.1-0.2-0.3-0.2-0.7l0-6.2c0-0.4,0.1-0.6,0.2-0.7c0.1-0.1,0.3-0.2,0.6-0.2c0.1,0,0.3,0,0.4,0c0.1,0,0.2,0.1,0.2,0.2
				c0.1,0.1,0.1,0.2,0.1,0.3c0,0.1,0,0.3,0,0.4L100.1,61.1z"/>
			<path class="st2" d="M108.2,57.3c0,0.7-0.2,1.4-0.6,2.1c-0.5,0.8-1.1,1.5-1.9,2.1c-0.2,0.2-0.4,0.3-0.6,0.3
				c-0.2,0-0.4-0.1-0.5-0.3c-0.1-0.2-0.2-0.3-0.2-0.5c0-0.2,0.1-0.4,0.4-0.6c0.6-0.5,1.1-1,1.4-1.4c0.4-0.5,0.7-1.1,0.7-1.6
				c0-0.7-0.2-1.2-0.6-1.5c-0.4-0.3-0.9-0.5-1.5-0.5l-2.5,0c-0.6,0-0.9-0.2-0.9-0.7c0-0.3,0.1-0.5,0.2-0.6c0.1-0.1,0.4-0.2,0.7-0.2
				l2.8,0c1,0,1.8,0.3,2.4,0.9C107.9,55.5,108.2,56.3,108.2,57.3z M103,63.2c0,0.2,0,0.3,0,0.4c0,0.1-0.1,0.2-0.1,0.3
				c-0.1,0.1-0.1,0.1-0.2,0.1c-0.1,0-0.2,0-0.4,0c-0.3,0-0.5-0.1-0.6-0.2c-0.1-0.1-0.2-0.3-0.2-0.7l0-5.2c0-0.4,0.1-0.6,0.2-0.7
				c0.1-0.1,0.3-0.2,0.6-0.2c0.5,0,0.8,0.3,0.8,0.9L103,63.2z"/>
			<path class="st2" d="M110.8,61.1c0,0.3-0.1,0.6-0.2,0.7c-0.1,0.1-0.3,0.2-0.6,0.2c-0.3,0-0.5-0.1-0.6-0.2
				c-0.1-0.1-0.2-0.3-0.2-0.7l0-6.2c0-0.4,0.1-0.6,0.2-0.7c0.1-0.1,0.3-0.2,0.6-0.2c0.1,0,0.3,0,0.4,0c0.1,0,0.2,0.1,0.2,0.2
				c0.1,0.1,0.1,0.2,0.1,0.3s0,0.3,0,0.4L110.8,61.1z"/>
			<path class="st2" d="M115.5,60.3c0,0.5-0.1,0.9-0.3,1.2c-0.2,0.2-0.6,0.3-1.1,0.3l-1.8,0c-0.5,0-0.8-0.3-0.8-0.7
				c0-0.1,0-0.3,0-0.4c0-0.1,0.1-0.2,0.1-0.2c0.1-0.1,0.2-0.1,0.3-0.1c0.1,0,0.2,0,0.4,0l1.3,0c0.2,0,0.3-0.1,0.3-0.3l0-3.4
				c0-0.7-0.3-1.1-1-1.1l-0.2,0c-0.5,0-0.8-0.2-0.8-0.7c0-0.5,0.3-0.8,0.8-0.8l0.3,0c1.7,0,2.5,0.9,2.5,2.6L115.5,60.3z"/>
			<path class="st2" d="M118.3,57.8c0,0.2,0,0.3,0,0.4c0,0.1-0.1,0.2-0.1,0.3c-0.1,0.1-0.1,0.1-0.2,0.1c-0.1,0-0.2,0-0.3,0
				c-0.3,0-0.5-0.1-0.6-0.2c-0.1-0.1-0.2-0.4-0.2-0.7l0-2.8c0-0.4,0.1-0.6,0.2-0.8c0.1-0.1,0.3-0.2,0.6-0.2c0.3,0,0.5,0.1,0.6,0.2
				c0.1,0.1,0.2,0.4,0.2,0.8L118.3,57.8z"/>
			<path class="st2" d="M126.7,60.9c0,0.2,0,0.4,0,0.5c0,0.1-0.1,0.2-0.1,0.3c-0.1,0.1-0.1,0.1-0.2,0.2c-0.1,0-0.2,0.1-0.4,0.1
				c-0.1,0-0.3,0-0.4-0.1c-0.1,0-0.2-0.1-0.2-0.2c-0.1-0.1-0.1-0.2-0.1-0.3c0-0.1,0-0.3,0-0.5l0-3.8c0-0.6-0.2-1.1-0.5-1.3
				c-0.3-0.3-0.8-0.4-1.4-0.4c-0.7,0-1.2,0.1-1.4,0.2c-0.3,0.2-0.5,0.5-0.5,1c0,0.2,0,0.4,0,0.6l0.2,1.9c0,0.1,0,0.1,0,0.2
				c0,0.1,0,0.1,0,0.2c0,0.7-0.2,1.2-0.6,1.6c-0.4,0.5-1,0.7-1.7,0.7l-0.1,0c-0.4,0-0.6-0.2-0.6-0.7c0-0.5,0.2-0.7,0.7-0.7l0.1,0
				c0.5,0,0.7-0.3,0.7-0.8c0,0,0-0.1,0-0.1c0,0,0-0.1,0-0.1l-0.2-1.9c0-0.4-0.1-0.8-0.1-1c0-1.6,1.2-2.5,3.4-2.5
				c1.2,0,2,0.2,2.6,0.7c0.6,0.5,0.9,1.3,0.8,2.4L126.7,60.9z"/>
			<path class="st2" d="M134.8,61.1c0,0.3-0.1,0.6-0.2,0.7c-0.1,0.1-0.3,0.2-0.6,0.2c-0.3,0-0.5-0.1-0.6-0.2
				c-0.1-0.1-0.2-0.3-0.2-0.7l0-4c0-0.5-0.1-0.9-0.4-1.1c-0.2-0.3-0.6-0.4-1.1-0.4l-3,0c-0.2,0-0.3,0-0.4,0c-0.1,0-0.2-0.1-0.3-0.1
				c-0.1-0.1-0.1-0.1-0.1-0.2c0-0.1,0-0.2,0-0.3c0-0.1,0-0.3,0-0.4c0-0.1,0.1-0.2,0.1-0.2c0.1-0.1,0.2-0.1,0.3-0.1
				c0.1,0,0.2,0,0.4,0l3.2,0c0.4,0,0.8,0.1,1.2,0.2c0.3,0.1,0.6,0.3,0.9,0.6c0.2,0.3,0.4,0.6,0.5,0.9c0.1,0.4,0.2,0.8,0.2,1.3
				L134.8,61.1z M129.7,61.1c0,0.3-0.1,0.5-0.2,0.7c-0.1,0.1-0.3,0.2-0.6,0.2c-0.3,0-0.5-0.1-0.6-0.2c-0.1-0.1-0.2-0.3-0.2-0.7
				l0-2.7c0-0.4,0.1-0.6,0.2-0.7c0.1-0.1,0.3-0.2,0.6-0.2c0.1,0,0.3,0,0.4,0c0.1,0,0.2,0.1,0.2,0.2c0.1,0.1,0.1,0.2,0.1,0.3
				c0,0.1,0,0.3,0,0.4L129.7,61.1z"/>
			<path class="st2" d="M139.9,57.8c0,0.2,0,0.3,0,0.4c0,0.1-0.1,0.2-0.1,0.3c-0.1,0.1-0.1,0.1-0.2,0.1c-0.1,0-0.2,0-0.3,0
				c-0.3,0-0.5-0.1-0.6-0.2c-0.1-0.1-0.2-0.4-0.2-0.7l0-2.8c0-0.4,0.1-0.6,0.2-0.8c0.1-0.1,0.3-0.2,0.6-0.2c0.3,0,0.5,0.1,0.6,0.2
				c0.1,0.1,0.2,0.4,0.2,0.8L139.9,57.8z"/>
			<path class="st2" d="M146.5,61.1c0,0.3-0.1,0.6-0.2,0.7c-0.1,0.1-0.3,0.2-0.6,0.2c-0.3,0-0.5-0.1-0.6-0.2
				c-0.1-0.1-0.2-0.3-0.2-0.7l0-4c0-0.5-0.1-0.9-0.4-1.1c-0.2-0.3-0.6-0.4-1.1-0.4l-2.1,0c-0.3,0-0.5-0.1-0.6-0.2
				c-0.1-0.1-0.2-0.3-0.2-0.6c0-0.1,0-0.3,0-0.3c0-0.1,0.1-0.2,0.1-0.2c0.1-0.1,0.2-0.1,0.3-0.1c0.1,0,0.2,0,0.4,0l2.4,0
				c0.4,0,0.8,0.1,1.2,0.2c0.3,0.1,0.6,0.3,0.9,0.6c0.2,0.3,0.4,0.6,0.5,0.9c0.1,0.4,0.2,0.8,0.2,1.3L146.5,61.1z"/>
			<path class="st2" d="M153.6,60.4c0,0.4-0.2,0.8-0.5,1.1c-0.3,0.3-0.7,0.4-1.1,0.4l-3.9,0c-0.3,0-0.5-0.1-0.6-0.1
				c-0.1-0.1-0.2-0.3-0.2-0.6c0-0.3,0.1-0.5,0.2-0.6c0.1-0.1,0.3-0.2,0.6-0.2l3.8,0c0.1,0,0.2,0,0.2-0.1c0,0,0-0.1-0.1-0.2l-4.4-4.7
				c-0.2-0.3-0.4-0.5-0.4-0.7c0-0.2,0.1-0.4,0.3-0.6c0.2-0.2,0.3-0.2,0.5-0.2c0.2,0,0.5,0.1,0.7,0.4l2,2.2l1.5-2
				c0.3-0.3,0.5-0.5,0.8-0.5c0.2,0,0.3,0.1,0.5,0.2c0.2,0.2,0.3,0.4,0.3,0.6c0,0.2-0.1,0.5-0.4,0.7l-1.8,2l1.3,1.6
				C153.5,59.6,153.6,60,153.6,60.4z"/>
			<path class="st2" d="M156.4,61.2c0,0.3-0.1,0.6-0.2,0.7c-0.1,0.1-0.3,0.2-0.6,0.2c-0.3,0-0.5-0.1-0.6-0.2
				c-0.1-0.1-0.2-0.3-0.2-0.7l0-6.2c0-0.4,0.1-0.6,0.2-0.7c0.1-0.1,0.3-0.2,0.6-0.2c0.1,0,0.3,0,0.4,0c0.1,0,0.2,0.1,0.2,0.2
				c0.1,0.1,0.1,0.2,0.1,0.3c0,0.1,0,0.3,0,0.4L156.4,61.2z"/>
			<path class="st2" d="M165.1,58.4c0,2.4-1.1,3.6-3.3,3.6c-0.2,0-0.3,0-0.4,0c-0.1,0-0.2,0-0.3,0c-0.4-0.1-0.6-0.3-0.6-0.6
				c0,0,0-0.1,0-0.1c0,0,0-0.1,0-0.1c0-0.4,0.2-0.7,0.6-0.7c0,0,0.1,0,0.1,0c0,0,0.1,0,0.1,0c0.1,0,0.2,0,0.3,0c0.1,0,0.2,0,0.2,0
				c0.7,0,1.1-0.2,1.4-0.5c0.3-0.3,0.4-0.9,0.4-1.6l0-0.6c0-1.6-0.7-2.4-2.1-2.4c-0.8,0-1.4,0.2-1.7,0.7c-0.3,0.4-0.5,1-0.5,1.9
				l0,3.1c0,0.6-0.3,0.9-0.8,0.9c-0.5,0-0.8-0.3-0.8-0.9l0-3.4c0-1.1,0.3-2,0.9-2.7c0.6-0.7,1.6-1,2.8-1c1.2,0,2.1,0.3,2.7,0.9
				c0.6,0.6,0.9,1.5,0.9,2.7L165.1,58.4z"/>
			<path class="st2" d="M175.7,61c0,0.2,0,0.4,0,0.5c0,0.1-0.1,0.2-0.1,0.3c-0.1,0.1-0.1,0.1-0.2,0.2c-0.1,0-0.2,0.1-0.4,0.1
				c-0.1,0-0.3,0-0.4-0.1c-0.1,0-0.2-0.1-0.2-0.2c-0.1-0.1-0.1-0.2-0.1-0.3c0-0.1,0-0.3,0-0.5l0-3.8c0-0.6-0.2-1.1-0.5-1.3
				c-0.3-0.3-0.8-0.4-1.4-0.4c-0.7,0-1.2,0.1-1.4,0.2c-0.3,0.2-0.5,0.5-0.5,1c0,0.2,0,0.4,0,0.6l0.2,1.9c0,0.1,0,0.1,0,0.2
				c0,0.1,0,0.1,0,0.2c0,0.7-0.2,1.2-0.6,1.6c-0.4,0.5-1,0.7-1.7,0.7l-0.1,0c-0.4,0-0.6-0.2-0.6-0.7c0-0.5,0.2-0.7,0.7-0.7l0.1,0
				c0.5,0,0.7-0.3,0.7-0.8c0,0,0-0.1,0-0.1c0,0,0-0.1,0-0.1l-0.2-1.9c0-0.4-0.1-0.8-0.1-1c0-1.6,1.2-2.5,3.4-2.5
				c1.2,0,2,0.2,2.6,0.7c0.6,0.5,0.9,1.3,0.8,2.4L175.7,61z"/>
			<path class="st2" d="M185.7,57.5c0,1.5-0.4,2.6-1.2,3.4c-0.8,0.8-1.9,1.2-3.2,1.2c-1.4,0-2.4-0.4-3.1-1.1
				c-0.8-0.7-1.1-1.8-1.1-3.3l0-2.8c0-0.4,0-0.7,0.1-0.8c0.1-0.1,0.3-0.2,0.6-0.2c0.3,0,0.5,0.1,0.6,0.2c0.1,0.1,0.2,0.4,0.2,0.8
				l0,2.8c0,1.9,0.9,2.9,2.8,2.9c0.9,0,1.5-0.3,2-0.8c0.5-0.5,0.7-1.3,0.7-2.3l0-2.6c0-0.4,0.1-0.7,0.2-0.8c0.1-0.1,0.3-0.2,0.6-0.2
				c0.3,0,0.5,0.1,0.6,0.2c0.1,0.1,0.2,0.4,0.2,0.8L185.7,57.5z M182.2,58.3c0,0.6-0.3,1-0.8,1c-0.5,0-0.8-0.3-0.8-1l0-3.3
				c0-0.4,0.1-0.6,0.2-0.8c0.1-0.1,0.3-0.2,0.6-0.2c0.5,0,0.8,0.3,0.8,1L182.2,58.3z"/>
			<path class="st2" d="M192.3,61.2c0,0.3-0.1,0.6-0.2,0.7c-0.1,0.1-0.3,0.2-0.6,0.2c-0.3,0-0.5-0.1-0.6-0.2
				c-0.1-0.1-0.2-0.3-0.2-0.7l0-4c0-0.5-0.1-0.9-0.4-1.1c-0.2-0.3-0.6-0.4-1.1-0.4l-2.1,0c-0.3,0-0.5-0.1-0.6-0.2
				c-0.1-0.1-0.2-0.3-0.2-0.6c0-0.1,0-0.3,0-0.3c0-0.1,0.1-0.2,0.1-0.2c0.1-0.1,0.2-0.1,0.3-0.1c0.1,0,0.2,0,0.4,0l2.4,0
				c0.4,0,0.8,0.1,1.2,0.2c0.3,0.1,0.6,0.3,0.9,0.6c0.2,0.3,0.4,0.6,0.5,0.9c0.1,0.4,0.2,0.8,0.2,1.3L192.3,61.2z"/>
		</g>
	</g>
</g>
</svg>
