<?xml version="1.0" encoding="utf-8"?>
<!-- Generator: Adobe Illustrator 19.1.1, SVG Export Plug-In . SVG Version: 6.00 Build 0)  -->
<svg version="1.1" id="Layer_1" xmlns="http://www.w3.org/2000/svg" xmlns:xlink="http://www.w3.org/1999/xlink" x="0px" y="0px"
	 viewBox="0 0 750 64.9" style="enable-background:new 0 0 750 64.9;" xml:space="preserve">
<style type="text/css">
	.st0{fill:#F1F1F1;}
	.st1{fill:#333333;}
</style>
<g>
	<rect id="XMLID_8_" class="st0" width="750" height="64.9"/>
	<g>
		<g>
			<g>
				<path class="st1" d="M161.8,26.5h4.4c2.6,0,4.6,0.7,6,2.1c1.4,1.4,2,3.4,2,6.1c0,2.7-0.7,4.7-2.2,6.1c-1.4,1.4-3.6,2.1-6.4,2.1
					h-3.9V26.5z M163,27.5v14.4h2.7c4.9,0,7.3-2.4,7.3-7.3c0-2.3-0.6-4.1-1.8-5.3c-1.2-1.2-2.9-1.8-5.3-1.8H163z"/>
				<path class="st1" d="M176.8,36.9c0-2,0.5-3.5,1.4-4.7c0.9-1.2,2.2-1.8,3.7-1.8c1.5,0,2.7,0.5,3.5,1.5c0.8,1,1.2,2.4,1.2,4.1v0.9
					H178c0,1.7,0.4,3,1.2,3.8c0.8,0.9,1.9,1.3,3.3,1.3c0.7,0,1.3-0.1,1.9-0.2c0.5-0.1,1.2-0.3,2-0.6v1c-1.2,0.5-2.4,0.8-3.8,0.8
					c-1.8,0-3.1-0.5-4.1-1.6C177.3,40.4,176.8,38.9,176.8,36.9z M185.6,35.9c0-1.4-0.3-2.5-0.9-3.3c-0.6-0.8-1.5-1.2-2.6-1.2
					c-1.1,0-2,0.4-2.8,1.2c-0.7,0.8-1.1,1.9-1.2,3.3H185.6z"/>
				<path class="st1" d="M192.6,42.1c1.3,0,2.2-0.2,2.9-0.6c0.6-0.4,1-0.9,1-1.6c0-0.7-0.3-1.2-0.8-1.6c-0.5-0.4-1.3-0.8-2.5-1.2
					c-1.2-0.4-2-0.8-2.5-1.1c-1-0.6-1.5-1.5-1.5-2.4c0-1,0.4-1.7,1.2-2.3c0.8-0.5,1.8-0.8,3.2-0.8c1.3,0,2.6,0.2,3.8,0.7l-0.4,1
					c-1.2-0.5-2.3-0.7-3.3-0.7c-1,0-1.8,0.2-2.4,0.5s-0.9,0.8-0.9,1.4s0.2,1.1,0.7,1.5c0.5,0.4,1.3,0.8,2.5,1.2
					c1.2,0.4,2.1,0.8,2.6,1.1c1,0.6,1.5,1.5,1.5,2.5c0,1.1-0.4,1.9-1.2,2.5c-0.8,0.6-2,0.9-3.6,0.9c-1.6,0-2.8-0.2-3.8-0.7v-1.2
					C190.1,41.8,191.3,42.1,192.6,42.1z"/>
				<path class="st1" d="M200.3,27.3c0-0.7,0.2-1.1,0.7-1.1c0.5,0,0.7,0.3,0.7,1.1c0,0.3-0.1,0.6-0.2,0.8c-0.2,0.2-0.4,0.3-0.6,0.3
					C200.5,28.4,200.3,28,200.3,27.3z M201.4,42.9h-0.9V30.7h0.9V42.9z"/>
				<path class="st1" d="M208.5,41.2h2.1c1.3,0,2.3,0.3,3,0.8c0.7,0.5,1.1,1.3,1.1,2.4c0,1.3-0.5,2.3-1.6,3c-1,0.7-2.4,1.1-4.1,1.1
					c-1.7,0-3-0.3-3.9-0.9c-0.8-0.6-1.3-1.4-1.3-2.5c0-0.8,0.3-1.5,0.8-2.1c0.5-0.6,1.2-0.9,2.2-1.1c-0.4-0.2-0.7-0.4-0.9-0.7
					c-0.2-0.3-0.3-0.6-0.3-1c0-0.8,0.5-1.6,1.6-2.2c-0.7-0.3-1.3-0.7-1.7-1.4c-0.4-0.6-0.6-1.3-0.6-2.1c0-1.2,0.4-2.2,1.2-2.9
					c0.8-0.7,1.8-1.1,3.2-1.1c0.8,0,1.4,0.1,1.8,0.2h3.9v0.8l-2.5,0.2c0.7,0.8,1,1.8,1,2.9s-0.4,2-1.2,2.7c-0.8,0.7-1.8,1.1-3.1,1.1
					c-0.5,0-0.9,0-1.1-0.1c-0.9,0.5-1.3,1.1-1.3,1.8c0,0.4,0.1,0.7,0.4,0.9C207.4,41.1,207.9,41.2,208.5,41.2z M210.4,42.3h-2
					c-2.2,0-3.4,0.9-3.4,2.7c0,1.7,1.3,2.5,3.8,2.5c3.2,0,4.8-1,4.8-3.1c0-0.7-0.3-1.3-0.8-1.6C212.3,42.4,211.5,42.3,210.4,42.3z
					 M211.5,32.2c-0.5-0.5-1.3-0.8-2.3-0.8c-1,0-1.8,0.3-2.3,0.8c-0.6,0.6-0.9,1.3-0.9,2.3c0,0.9,0.3,1.7,0.9,2.2
					c0.6,0.5,1.4,0.8,2.4,0.8c1,0,1.7-0.3,2.3-0.8c0.5-0.5,0.8-1.3,0.8-2.2C212.3,33.4,212,32.7,211.5,32.2z"/>
				<path class="st1" d="M222.6,30.5c2.8,0,4.2,1.5,4.2,4.5v8h-1.1V35c0-1.2-0.3-2.1-0.8-2.7c-0.5-0.6-1.3-0.8-2.4-0.8
					c-1.4,0-2.5,0.4-3.2,1.1c-0.7,0.7-1,1.9-1,3.6v6.7h-1.1V30.7h0.9l0.2,1.7h0.1C219.2,31.1,220.6,30.5,222.6,30.5z"/>
				<path class="st1" d="M237.2,29.7c0-1.1,0.4-1.9,1.1-2.5c0.7-0.6,1.7-0.9,2.9-0.9c1.2,0,2.1,0.3,2.8,0.9c0.7,0.6,1,1.4,1,2.5
					c0,0.8-0.3,1.5-0.8,2.2c-0.5,0.7-1.5,1.4-2.8,2.2l5,5.1c0.9-1.1,1.6-2.4,2-4h1.1c-0.5,1.8-1.3,3.4-2.4,4.8l3,3h-1.5l-2.2-2.2
					c-0.7,0.7-1.3,1.2-1.8,1.5c-1.1,0.6-2.4,1-3.9,1c-1.6,0-2.8-0.4-3.7-1.2c-0.9-0.8-1.3-1.9-1.3-3.2c0-1,0.3-1.9,0.8-2.6
					c0.6-0.7,1.6-1.5,3.1-2.3l-0.9-0.9C237.7,31.8,237.2,30.8,237.2,29.7z M236.7,38.6c0,1.1,0.3,2,1,2.6c0.7,0.6,1.6,0.9,2.7,0.9
					c1.1,0,2-0.2,2.8-0.5c0.8-0.3,1.6-0.9,2.3-1.6l-5.4-5.4c-1,0.5-1.8,1-2.2,1.4C237.2,36.6,236.7,37.5,236.7,38.6z M243.1,27.9
					c-0.5-0.4-1.1-0.7-1.9-0.7c-0.8,0-1.5,0.2-2,0.7c-0.5,0.4-0.7,1-0.7,1.7c0,0.7,0.1,1.3,0.4,1.8c0.3,0.5,0.9,1.2,1.7,2
					c1.2-0.6,2-1.2,2.5-1.8c0.5-0.6,0.7-1.2,0.7-1.9C243.8,28.9,243.5,28.3,243.1,27.9z"/>
				<path class="st1" d="M258.5,26.5h4.4c2.6,0,4.6,0.7,6,2.1c1.4,1.4,2,3.4,2,6.1c0,2.7-0.7,4.7-2.2,6.1c-1.4,1.4-3.6,2.1-6.4,2.1
					h-3.9V26.5z M259.6,27.5v14.4h2.7c4.9,0,7.3-2.4,7.3-7.3c0-2.3-0.6-4.1-1.8-5.3c-1.2-1.2-2.9-1.8-5.3-1.8H259.6z"/>
				<path class="st1" d="M273.5,36.9c0-2,0.5-3.5,1.4-4.7c0.9-1.2,2.2-1.8,3.7-1.8s2.7,0.5,3.5,1.5c0.8,1,1.2,2.4,1.2,4.1v0.9h-8.8
					c0,1.7,0.4,3,1.2,3.8c0.8,0.9,1.9,1.3,3.3,1.3c0.7,0,1.3-0.1,1.9-0.2c0.5-0.1,1.2-0.3,2-0.6v1c-1.2,0.5-2.4,0.8-3.8,0.8
					c-1.8,0-3.1-0.5-4.1-1.6C273.9,40.4,273.5,38.9,273.5,36.9z M282.2,35.9c0-1.4-0.3-2.5-0.9-3.3c-0.6-0.8-1.5-1.2-2.6-1.2
					s-2,0.4-2.8,1.2c-0.7,0.8-1.1,1.9-1.2,3.3H282.2z"/>
				<path class="st1" d="M290.4,42.9h-1.1l-4.7-12.2h1.1l3.2,8.3c0.4,1.1,0.7,2,0.9,2.8h0.1c0.3-1,0.6-1.9,0.9-2.8l3.2-8.3h1.1
					L290.4,42.9z"/>
				<path class="st1" d="M296.2,36.9c0-2,0.5-3.5,1.4-4.7c0.9-1.2,2.2-1.8,3.7-1.8c1.5,0,2.7,0.5,3.5,1.5c0.8,1,1.2,2.4,1.2,4.1v0.9
					h-8.8c0,1.7,0.4,3,1.2,3.8c0.8,0.9,1.9,1.3,3.3,1.3c0.7,0,1.3-0.1,1.9-0.2c0.5-0.1,1.2-0.3,2-0.6v1c-1.2,0.5-2.4,0.8-3.8,0.8
					c-1.8,0-3.1-0.5-4.1-1.6C296.7,40.4,296.2,38.9,296.2,36.9z M305,35.9c0-1.4-0.3-2.5-0.9-3.3c-0.6-0.8-1.5-1.2-2.6-1.2
					s-2,0.4-2.8,1.2c-0.7,0.8-1.1,1.9-1.2,3.3H305z"/>
				<path class="st1" d="M310.4,42.9h-1.1V25.4h1.1V42.9z"/>
				<path class="st1" d="M313.5,36.8c0-2,0.5-3.5,1.4-4.6c1-1.1,2.3-1.7,4-1.7c1.7,0,3,0.6,3.9,1.7c0.9,1.1,1.4,2.7,1.4,4.7
					c0,2-0.5,3.5-1.4,4.6c-1,1.1-2.3,1.7-4,1.7h-0.1c-1.5,0-2.8-0.6-3.8-1.7c-1-1.1-1.5-2.6-1.5-4.5V36.8z M323.1,36.8
					c0-1.7-0.4-3-1.1-3.9c-0.7-0.9-1.8-1.4-3.1-1.4c-1.3,0-2.4,0.5-3.1,1.4c-0.7,0.9-1.1,2.2-1.1,3.9s0.4,3,1.1,3.9
					c0.7,0.9,1.8,1.4,3.1,1.4c1.3,0,2.4-0.5,3.1-1.4C322.8,39.8,323.1,38.5,323.1,36.8z"/>
				<path class="st1" d="M332.6,30.5c1.7,0,3,0.5,3.9,1.6c0.9,1.1,1.3,2.6,1.3,4.7s-0.5,3.6-1.4,4.7c-0.9,1.1-2.1,1.7-3.7,1.7
					c-1.9,0-3.2-0.7-4.1-2.1h-0.1l0,0.9c0,0.5,0,1.1,0,1.8v4.7h-1.1V30.7h0.9l0.2,1.7h0.1C329.6,31.1,330.8,30.5,332.6,30.5z
					 M328.6,36.5v0.4c0,1.9,0.3,3.3,1,4.1c0.6,0.8,1.6,1.2,3,1.2c1.3,0,2.4-0.5,3-1.4c0.7-0.9,1-2.2,1-3.9c0-3.6-1.3-5.4-3.9-5.4
					c-1.4,0-2.5,0.4-3.1,1.2C328.9,33.4,328.6,34.7,328.6,36.5z"/>
				<path class="st1" d="M353.3,30.5c1.3,0,2.3,0.4,3,1.1c0.7,0.7,1,1.8,1,3.4v8h-1.1v-8c0-1.2-0.2-2-0.7-2.6
					c-0.5-0.6-1.2-0.8-2.4-0.8c-2.3,0-3.4,1.4-3.4,4.3v7.1h-1.1v-8.3c0-2.1-0.9-3.1-2.8-3.1c-1.3,0-2.2,0.4-2.8,1.1
					c-0.6,0.7-0.9,1.9-0.9,3.6v6.7H341V30.7h0.9l0.2,1.7h0.1c0.3-0.6,0.8-1.1,1.4-1.4c0.6-0.3,1.3-0.5,2.1-0.5
					c1.9,0,3.2,0.7,3.7,2.2h0c0.4-0.7,0.9-1.2,1.6-1.6C351.7,30.6,352.5,30.5,353.3,30.5z"/>
				<path class="st1" d="M360.3,36.9c0-2,0.5-3.5,1.4-4.7c0.9-1.2,2.2-1.8,3.7-1.8s2.7,0.5,3.5,1.5c0.8,1,1.2,2.4,1.2,4.1v0.9h-8.8
					c0,1.7,0.4,3,1.2,3.8c0.8,0.9,1.9,1.3,3.3,1.3c0.7,0,1.3-0.1,1.9-0.2c0.5-0.1,1.2-0.3,2-0.6v1c-1.2,0.5-2.4,0.8-3.8,0.8
					c-1.8,0-3.1-0.5-4.1-1.6C360.8,40.4,360.3,38.9,360.3,36.9z M369.1,35.9c0-1.4-0.3-2.5-0.9-3.3c-0.6-0.8-1.5-1.2-2.6-1.2
					s-2,0.4-2.8,1.2c-0.7,0.8-1.1,1.9-1.2,3.3H369.1z"/>
				<path class="st1" d="M378.9,30.5c2.8,0,4.2,1.5,4.2,4.5v8h-1.1V35c0-1.2-0.3-2.1-0.8-2.7c-0.5-0.6-1.3-0.8-2.4-0.8
					c-1.4,0-2.5,0.4-3.2,1.1c-0.7,0.7-1,1.9-1,3.6v6.7h-1.1V30.7h0.9l0.2,1.7h0.1C375.4,31.1,376.9,30.5,378.9,30.5z"/>
				<path class="st1" d="M388,30.7h3.6v1H388v7.7c0,0.9,0.2,1.6,0.5,2.1c0.3,0.4,0.8,0.7,1.6,0.7s1.3-0.1,1.8-0.2v0.9
					c-0.5,0.2-1.2,0.3-1.9,0.3c-1.1,0-1.9-0.3-2.4-0.9c-0.5-0.6-0.8-1.5-0.8-2.7v-7.8H385v-0.7l1.8-0.5l0.6-2.7h0.6V30.7z"/>
				<path class="st1" d="M405.1,30.5c1.7,0,3,0.5,3.9,1.6c0.9,1.1,1.3,2.6,1.3,4.7c0,2-0.5,3.6-1.4,4.7c-0.9,1.1-2.2,1.7-3.8,1.7
					c-0.9,0-1.7-0.2-2.3-0.5c-0.7-0.4-1.2-0.9-1.7-1.5H401l-0.3,1.9H400V25.4h1.1v4.4c0,0.7,0,1.3,0,1.8l0,1h0.1
					C402,31.2,403.4,30.5,405.1,30.5z M401.1,36.8V37c0,1.8,0.3,3.2,1,4c0.6,0.8,1.6,1.2,3,1.2c1.3,0,2.4-0.5,3-1.4
					c0.7-0.9,1-2.2,1-4c0-3.5-1.3-5.3-4-5.3c-1.4,0-2.5,0.4-3.1,1.2C401.4,33.5,401.1,34.9,401.1,36.8z"/>
				<path class="st1" d="M412.9,48.4c-0.4,0-0.9-0.1-1.4-0.2v-1c0.4,0.1,0.9,0.2,1.4,0.2c0.7,0,1.3-0.4,1.8-1.1
					c0.2-0.4,0.5-1,0.8-1.8l0.6-1.6l-4.7-12.2h1.1l2.6,6.8c0.8,2,1.3,3.5,1.5,4.3h0.1c0.3-0.8,0.8-2.3,1.5-4.3l2.6-6.8h1.1
					l-5.5,14.2c-0.4,1.1-0.8,1.9-1.1,2.3C414.8,48,414,48.4,412.9,48.4z"/>
			</g>
		</g>
		<g>
			<g>
				<path class="st1" d="M496.2,36c0,0.4,0,0.8-0.1,1.5l-8.7,0.2c0.1,1.2,0.6,2.3,1.4,3.1c0.9,0.8,2,1.2,3.4,1.2
					c1.3,0,2.5-0.2,3.6-0.5l-0.2,1.8c-0.8,0.3-2,0.5-3.6,0.5c-2.2,0-3.9-0.6-5-1.8c-1.1-1.2-1.7-2.6-1.7-4.4c0-1.8,0.5-3.4,1.6-4.7
					c1-1.3,2.5-2,4.2-2c1.6,0,2.9,0.5,3.7,1.4C495.7,33.3,496.2,34.5,496.2,36z M494.1,36c0-2.4-1-3.5-3-3.5c-2,0-3.2,1.2-3.6,3.7
					L494.1,36z"/>
				<path class="st1" d="M509.5,42.8h-2.3c0.2-2.1,0.3-4.3,0.3-6.9c0-1.3-0.3-2-0.8-2.5c-0.5-0.5-1.3-0.6-2.3-0.6
					c-1.2,0-2.3,0.2-3.3,1c0,2.9,0,6.9,0.1,9h-2.3c0.1-2.1,0.2-4.6,0.2-5.9c0-2-0.2-3.7-0.6-5.6l2.2-0.5l0.2,1.4h0.1
					c1.2,0,2.6-1.5,4-1.5c1.4,0,2.5,0.4,3.2,1c0.8,0.6,1.1,1.8,1.1,3.3c0,0.2,0,0.5,0,1c0,0.5,0,0.5,0,0.7
					C509.5,38.2,509.5,40.7,509.5,42.8z"/>
				<path class="st1" d="M522.4,32.3c0,0-0.6,1.8-1.9,4.7c-1.5,3.3-2.4,5.4-2.7,6.8c-0.6,2.2-1.1,3.5-1.6,4.1
					c-0.7,0.8-1.9,1.2-3.6,1.2l-0.1-1.8c1.1,0,1.9-0.4,2.6-1.1c0.7-0.7,1-1.6,1-2.7c0-0.9-0.8-2.7-2.3-6.2c-1.5-3.5-2.3-4.9-2.3-4.9
					h2.6c0,0,0.5,1.1,1.6,3.9c1.1,2.8,1.6,4.5,1.6,4.5h0.1c0,0,0.4-1.4,1.3-4.1c0.9-2.6,1.3-4.4,1.3-4.4H522.4z"/>
				<path class="st1" d="M534.7,36c0,0.4,0,0.8-0.1,1.5l-8.7,0.2c0.1,1.2,0.6,2.3,1.4,3.1c0.9,0.8,2,1.2,3.4,1.2
					c1.3,0,2.5-0.2,3.6-0.5l-0.2,1.8c-0.8,0.3-2,0.5-3.6,0.5c-2.2,0-3.9-0.6-5-1.8c-1.1-1.2-1.7-2.6-1.7-4.4c0-1.8,0.5-3.4,1.6-4.7
					c1-1.3,2.5-2,4.2-2c1.6,0,2.9,0.5,3.7,1.4C534.3,33.3,534.7,34.5,534.7,36z M532.6,36c0-2.4-1-3.5-3-3.5c-2,0-3.2,1.2-3.6,3.7
					L532.6,36z"/>
				<path class="st1" d="M548.1,42.8h-2.3c0.2-2.1,0.3-4.3,0.3-6.8c0-1.4-0.3-2.1-0.8-2.6c-0.5-0.5-1.2-0.6-2.1-0.6
					c-1.3,0-2.4,0.2-3.5,1c0,4.6,0,9,0.1,9h-2.2c0.1-2.1,0.1-5.1,0.1-9.1c0-3.5-0.1-6.2-0.4-8.2l2.4-0.2c-0.1,2.6-0.1,4.9-0.1,7h0.1
					c1.3,0,2.6-1.5,4.1-1.5c1.3,0,2.4,0.4,3.2,1c0.8,0.6,1.1,1.8,1.1,3.3c0,0.2,0,0.5,0,1c0,0.5,0,0.6,0,0.9
					C548,38.3,548,40.7,548.1,42.8z"/>
				<path class="st1" d="M561.8,43.4l-2,0.3c-0.1-0.5-0.2-0.9-0.2-0.9h-0.1c-1.1,0-2.5,1.2-4.1,1.2c-1.5,0-2.5-0.5-3.2-1.2
					c-0.7-0.7-1-2.2-1-4.3c0-0.3,0-0.8,0-1.4c0-0.6,0-1,0-1.2c0-1.2-0.1-2.7-0.2-4.4l2.3-0.1c-0.1,1.6-0.2,3-0.2,4.2
					c0,2.6,0.2,4.4,0.5,5.2c0.3,0.8,1.1,1.2,2.3,1.2c1.3,0,2.5-0.3,3.3-1c0-4.7,0-7.8-0.1-9.4l2.3-0.1c-0.1,1.6-0.1,3.8-0.1,6.6
					C561.5,39.8,561.6,41.6,561.8,43.4z"/>
				<path class="st1" d="M575.6,43.4l-1.9,0.3c-0.1-0.4-0.1-0.9-0.1-0.9h-0.1c-0.9,0-2.2,1.2-3.9,1.2c-1.6,0-2.9-0.7-3.8-1.9
					c-0.9-1.2-1.4-2.6-1.4-4.3c0-1.9,0.5-3.5,1.6-4.8c1.1-1.3,2.5-1.8,4.4-1.8c1.4,0,2.3,1,2.9,1h0.1c0-2.1-0.1-4.4-0.2-6.4l2.4-0.2
					c-0.2,2.1-0.2,4.9-0.2,8.3C575.3,37.6,575.4,40.6,575.6,43.4z M573.6,40.9c0-2.6-0.1-5.1-0.2-7.6c-0.7-0.6-1.5-0.8-2.5-0.8
					c-1.4,0-2.5,0.5-3.2,1.4c-0.7,0.9-1.1,2.1-1.1,3.6c0,1.3,0.3,2.4,1,3.2c0.7,0.9,1.6,1.3,2.8,1.3C571.8,42,572.9,41.7,573.6,40.9
					z"/>
				<path class="st1" d="M588.2,43.4l-2,0.3c-0.1-0.4-0.2-0.9-0.2-0.9h-0.1c-1,0-2.4,1.2-4.2,1.2c-1,0-1.8-0.4-2.5-1
					c-0.7-0.6-1-1.4-1-2.5c0-1.3,0.5-2.4,1.6-3.2c1.1-0.8,3.1-1.2,6.1-1.3c0-0.2,0-0.4,0-0.7c0-1-0.3-1.7-0.8-2.1
					c-0.6-0.3-1.4-0.5-2.5-0.5c-1.3,0-2.6,0.2-3.9,0.5l0.2-1.7c1.3-0.4,2.7-0.5,4.3-0.5c1.5,0,2.7,0.3,3.5,0.9
					c0.8,0.6,1.2,1.7,1.2,3.2c0,0.4,0,1.1-0.1,2.1c0,1-0.1,1.7-0.1,2.1C587.8,40.9,587.9,42.2,588.2,43.4z M585.9,41
					c0-1.3-0.1-2.4-0.1-3.4c-1.6,0-2.8,0.1-3.6,0.4c-1.4,0.4-2.1,1.2-2.1,2.4c0,1.1,0.8,1.7,2.4,1.7C584,42,585.1,41.7,585.9,41z"/>
				<g>
					<path class="st1" d="M483.4,38.2c0,1.8-0.7,3.3-2.2,4.3c-1.5,1-3.6,1.5-6.2,1.5c-0.7,0-2.2,0-4.3-0.1c0.1-2.9,0.2-5.9,0.2-9.4
						c0-3.3-0.1-6.4-0.2-8.5h1.7c0.3,0,1-0.3,2-0.3c1,0,1.7-0.2,2.2-0.2c3.9,0,5.7,1.3,5.7,4c0,2.1-0.9,3.5-3,4.2v0.1
						C481.3,34.2,483.4,35.7,483.4,38.2z M480.1,30.1c0-2-1.3-2.9-4-2.9c-1.3,0-2.4,0.1-3.2,0.2C473,28,473,30,473,33.1
						c0.5,0,1,0,1.5,0c1.9,0,3.2-0.2,4.1-0.6C479.6,32,480.1,31.2,480.1,30.1z M481.2,38.5c0-2.3-2.1-3.5-6.2-3.5
						c-0.8,0-1.4,0-2,0.1c0,2.5,0.1,4.8,0.2,6.8c0.4,0.1,1,0.1,1.9,0.1c2.3,0,3.9-0.3,4.8-0.9C480.8,40.5,481.2,39.7,481.2,38.5z"/>
				</g>
			</g>
		</g>
		<path class="st1" d="M446.9,17.6c-9.2,0-16.7,7.5-16.7,16.7S437.7,51,446.9,51s16.7-7.5,16.7-16.7S456.2,17.6,446.9,17.6z
			 M439.2,44.9v-0.3c0-0.1,0.7-0.2,1.2-0.4c0.4-0.2,0.7-0.4,1-0.7c0.1-0.1,0.1-0.3,0.2-0.5c0.1-0.2,0.1-0.5,0.1-0.8
			c0-0.3,0.1-0.6,0.1-0.9c0-0.3,0-0.6,0-1c0-0.3,0-0.7,0-1.1c0-0.5-0.2-1-0.2-1.6c0-0.6-0.2-1.1-0.2-1.7v-4.6c0,0,0-0.1,0-0.1
			c0,0.9,0.8,1.9,1,2.8c0.8,3.7,1.9,6.7,3.3,10.9H439.2z M454.9,41c-0.2,0.6-0.5,1.1-0.9,1.5c-0.4,0.4-0.7,0.8-1.2,1.1
			c-0.4,0.3-0.9,0.5-1.3,0.7c-0.2,0.1-0.3,0.1-0.5,0.2c-0.2-0.6-0.4-1.1-0.6-1.7c0.3-0.3,0.5-0.5,0.7-0.8c0.5-0.7,0.7-1.6,0.7-2.6
			c0-0.6-0.1-1.1-0.3-1.6c-0.2-0.5-0.4-1-0.8-1.4c-0.3-0.4-0.7-0.8-1.2-1.1c-0.4-0.3-0.9-0.5-1.5-0.7c-0.3-0.1-0.6-0.2-0.9-0.2
			c-0.1-0.3-0.2-0.6-0.3-0.9c1-0.2,1.7-0.7,2.3-1.3c0.9-0.9,1.4-2,1.4-3.4c0-1-0.3-1.9-0.8-2.6c-0.5-0.8-1.1-1.3-1.9-1.7
			c-0.9-0.4-2-0.6-3.4-0.6c-0.4,0-0.8,0-1.1,0.1c0,0-0.1,0.1-0.1,0.1c-0.1-0.2-0.1-0.3-0.2-0.3h3.3c0.7,0,1.5-0.1,2.1,0
			c0.7,0.1,1.3,0.2,2,0.4c1,0.4,1.8,0.9,2.5,1.7c0.7,0.8,1,1.7,1,2.9c0,1.3-0.3,2.3-1.2,3.1c-0.8,0.8-1.1,1.3-3.2,1.6v0.1
			c0,0.1,1.3,0.3,2,0.5c0.7,0.3,1.3,0.6,1.8,1.1c0.5,0.5,0.9,1,1.3,1.6c0.3,0.6,0.5,1.3,0.5,2.1C455.2,39.8,455.1,40.4,454.9,41z"/>
	</g>
</g>
</svg>
