<?xml version="1.0" encoding="utf-8"?>
<!-- Generator: Adobe Illustrator 19.1.1, SVG Export Plug-In . SVG Version: 6.00 Build 0)  -->
<svg version="1.1" id="Layer_1" xmlns="http://www.w3.org/2000/svg" xmlns:xlink="http://www.w3.org/1999/xlink" x="0px" y="0px"
	 viewBox="0 0 750 921" style="enable-background:new 0 0 750 921;" xml:space="preserve">
<style type="text/css">
	.st0{fill-rule:evenodd;clip-rule:evenodd;fill:#D32027;}
	.st1{fill:#1E1E1C;}
	.st2{fill:#FFFFFF;}
</style>
<g>
	<path class="st0" d="M400.4,267c2.4-0.3-1.9-0.3-0.6-1.4c1.4,0.1,2.8,0.2,4.1,0.4c0.2-0.8-0.6-1.1-2-1.1c1.4-1.6-0.3-1.9,1-3.6
		c-0.4-1-3.2-0.6-3.3-1.7c0.8,0,1.1-0.4,1.5-0.8c-1.5-1-5.3-0.9-5.2-3.7c-7.4-0.3-12.6-1.6-19.4-1.2c0-0.5,1.1-0.6,0.1-0.9
		c-2.4-0.4-4.4-1.1-7.6-1.1c-0.5,0-0.9-0.1-1.4-0.1c-2.7-0.9-6.1-1.1-8.3-0.7c-2.2-0.4-2.8,0.8-4.1-0.4c-2.4,0.2-2.9-0.8-4.1-1.3
		c0,1.9-0.9-0.2-2.8,0.2c-5.1-0.4-15.5-1.1-20-2.2c-0.9-0.7-4.4-1.3-7.6-0.7c-17.6-1.3-36.6-3.4-54.5-5.2c-1.5-1-5.1-0.8-6.3-0.1
		c-8.6-1-17.2-0.7-24.1-2.6c-2.5,0.1-6.8-0.8-9.7,0.1c-9.2,0.8-16.9-1.4-25.6-1.3c-0.7-0.1-1.4-0.1-2.1-0.2c-1-0.2-4.7-1.5-6.9-0.6
		c-0.2,0-0.5,0-0.7-0.1c-0.6-0.7-10.4-1.5-11.1-1c-0.2,0-0.5,0-0.7-0.1c-0.2-1-3.4-0.5-4.8-0.9c-1.2-1-5.4-0.4-6.9-0.1
		c-4.9-1-5.3-0.4-11.1-1c-2.6-1.3-8.2-0.7-9.7-0.8c-1.5,0.9-2-0.4-4.1-0.4c-1-0.6-5.9-1.4-6.9-0.6c-1.9,0.3-3.6-0.2-5.5-0.9
		c-1.5-1.2-6.2-0.7-8.9-1.2c-0.9,0.1-1.4,0.5-2.8,0.2c0-0.5,0.6-0.5,0.8-0.8c-7-0.1-13.2-1.8-20.1-1.3c-1.3,1.7,3,0.4,2.6,1.6
		c-1.2-0.1-2.3-0.2-3.5-0.3c-2.6,0.1-6.8-1.2-8.3-0.3c1,1,3.4,1.4,6.1,1.4c0,0.3-0.1,0.6-0.1,0.9c-0.2,0-0.5,0-0.7-0.1
		c-1.2-1.3-6.9-0.3-8.2-1.6c-1.6-1.3,2-0.8,1.6-2.6c-2.5-0.4-0.9,2.5-4.3,1.5c-0.1,0.6,0.2,1,0.6,1.4c-0.5,0.1-0.8,0.3-0.8,0.8
		c-1.1,0.3-1.6,1-1.6,2.1c1.4,0.1,2.8,0.2,4.1,0.4c0.4,0.1,0.8,0.1,0.7,0.5c-1.9,0.5-6.7-1.5-8.4,0.2c2.2-0.1,5.7,2.6,5.3,3.7
		c-0.2,1.1-0.3,2.2,0.5,2.8c-2.3-0.4-1.3,1.9-2.3,2.5c0.4,0.2,2.6,1.4,2.8,0.2c-0.8-0.1-1.6-0.3-1.3-1c0.4,0,0.8,0,0.7-0.4
		c1.8,0.2,2.3,1,3.3,1.7c-2.6,0.8,3.9,0.2,3.4,1.2c-1.4-0.1-2.8-0.2-4.1-0.4c-1.9,0.1-5.4-1.1-6.3-0.1c0.8,0.5,1.8,0.8,3.4,0.8
		c1.7,0.1,3.4,0.2,3.4,1.2c-1.1-0.9-4.2-0.9-4.9,0c1.9,0.4,5.5-0.1,6.2,1c-3.2-0.1-7.7-1.3-9.1,0.1c3.3-0.5,3,0.5,5.4,1.4
		c-0.9,1.1,2,2.1-0.8,1.8c-0.1-0.4-0.5-0.6-1.3-0.6c-1.4,0.8-0.2,1.1-0.2,2.3c-1.8-0.6-6.7-0.7-5.6,0.4c0.5,0,0.9,0.1,1.4,0.1
		c0,0.2,0,0.3,0,0.5c2,0.3,4.2,0.6,4.7,1.8c-1.9,0-4.1-2.1-5.5-0.9c2.1,0.3,3,1.3,4.7,1.8c0.7,0.1,1.4,0.1,2.1,0.2
		c-0.1,0.7-1.9,0.1-2.2,0.7c1.2,0.3-0.2,0.6-0.1,1.4c-1.9,1-3.3-0.7-6.2-0.5c-0.6-1.8-4.6,1.1-4.3,1.9c0.2-1.1,2.3,0.1,2.8,0.2
		c0.1-0.5,0.3-1.1,1.5-0.8c0.2,0,0.5,0,0.7,0.1c-0.4,1-3.2,1-1.6,2.1c4.6-1.8,10.2,1.5,15.8,1.8c2.6,0.2,5,0.5,6.1,1.4
		c-2.5-0.2-5.1-0.4-7.6-0.7c-1.7,0.1-5-1-5.6,0c2.4,0.9,6.1,1,8.9,1.7c0,0.5-0.6,0.5-0.8,0.8c-3.8,0.3-10.1-0.8-12.6,0.3
		c1.4,2.4,3.8,1.6,6.7,2.9c100.8,9.5,210.5,19,308.8,26.8c0.1-1.4-5.2,0.2-4-1.7c3.4,0.2,4.6,1.2,6.9,0.1c-2.5-0.4-3.7-1.5-5.4-2.3
		c1-0.2,3.5,0.8,3.5-0.2c-0.5-0.1-0.8-0.4-0.6-1c0.5-0.7,3.3,0.3,3.5-0.6c-1.9-1.1-3.2-2.6-6-3.3c0-0.5,0.1-0.9,0.1-1.4
		c-0.9-0.1-1.8-0.2-2.8-0.2c0.2-0.5,1.1-0.4,2.1-0.3c1.2-1.8-3.6-0.4-3.3-1.7c1.6-2,6.9,1.4,9.7-0.1c-3.9-0.2-4.3-2.3-8.9-2.1
		c0-0.5,0.6-0.5,0.8-0.8c1.4,0.3,7.2,0.6,3.5-0.2c0-0.5-0.5-0.6-0.6-1c0.8,0.2,4.3,0.3,2.1-0.3c-0.7-0.1-1.4-0.1-2.1-0.2
		c-0.7-0.1-1.4-0.1-2.1-0.2c0.2-1.3,4.7,0.8,4.9-0.5c-0.7-0.3-1.4-0.6-1.8-1l0,0c0.1,0,0.1,0,0.2-0.1l0,0c0.4-0.1,0.7-0.2,1.1-0.4
		c0-0.2,0-0.3,0-0.5c0.9,0.1,1-0.5,2.1-0.3c0.1,0.4,0.5,0.6,1.3,0.6c0.2-1.6-4.1-2-1.8-3.4c0.9,0.1,1.5-0.1,2.1-0.3
		c0.9,0.1,1.8,0.2,2.8,0.2c-1.3-1.3-3-2.4-4.6-3.6c-1.4-0.4-4.6,0.2-4.8-0.9c3,0.3,5.7,0.3,7.7-0.2c-1.2,0-1.7-0.7,0-0.5
		c1-0.2,3.5,0.8,3.5-0.2C403.3,267.8,401,267.8,400.4,267z M345.3,290.2c0.1-0.1,0.1-0.1,0.1-0.2C345.4,290,345.4,290.1,345.3,290.2
		z M343.5,288.6c-0.4-0.1-0.9-0.1-1.4-0.1C342.6,288.5,343.1,288.6,343.5,288.6z M342.1,289.3c0,0-0.1,0.1-0.1,0.2
		C342.1,289.4,342.1,289.4,342.1,289.3z M343.5,288.6c-0.1,0.5-1,0.4-1.4,0.7C342.5,289,343.4,289.1,343.5,288.6z M342,289.5
		c0,0.1,0,0.2,0,0.3C342,289.7,342,289.6,342,289.5z M344.2,288.8C344.2,288.8,344.2,288.8,344.2,288.8
		C344.2,288.8,344.2,288.8,344.2,288.8z M344.6,289C344.7,289,344.7,289,344.6,289C344.7,289,344.7,289,344.6,289z M345.2,290.3
		c-0.1,0.1-0.3,0.2-0.4,0.3C345,290.4,345.1,290.3,345.2,290.3z M345,289.2c0,0,0.1,0.1,0.1,0.1C345.1,289.3,345.1,289.2,345,289.2z
		 M345.3,289.4c0,0,0.1,0.1,0.1,0.1C345.4,289.5,345.3,289.5,345.3,289.4z M345.4,289.7c0,0.1,0,0.1,0,0.2
		C345.5,289.8,345.5,289.7,345.4,289.7z M343.7,288.7C343.7,288.7,343.7,288.7,343.7,288.7C343.7,288.7,343.7,288.7,343.7,288.7
		L343.7,288.7L343.7,288.7c2.8,0.5,4.9,2.1,7.2,2.8C348.6,290.7,346.5,289.2,343.7,288.7z M351.7,291.7c-0.2-0.1-0.4-0.1-0.7-0.2
		C351.3,291.6,351.5,291.6,351.7,291.7z M352.5,291.8c-0.2,0-0.4-0.1-0.6-0.1C352.1,291.8,352.3,291.8,352.5,291.8z M356.6,291.1
		c-0.3,0.2-0.7,0.3-1,0.4C355.9,291.4,356.2,291.3,356.6,291.1z M355.2,291.6c-0.2,0.1-0.4,0.1-0.6,0.2
		C354.8,291.7,355,291.6,355.2,291.6z M354.3,291.8c-0.2,0-0.4,0.1-0.6,0.1C353.9,291.8,354.1,291.8,354.3,291.8z M353.4,291.9
		c-0.2,0-0.4,0-0.6,0C353,291.9,353.2,291.9,353.4,291.9z M391.6,278.2c-0.1,0-0.2,0-0.3,0C391.5,278.2,391.5,278.2,391.6,278.2z
		 M390,278.3c-0.6,0-1.1,0-1.7,0C388.9,278.3,389.4,278.3,390,278.3z M393.1,278C393.2,278,393.2,278,393.1,278
		C393.2,278,393.2,278,393.1,278z"/>
	<path class="st0" d="M396,277.2c-0.4,0.2-0.7,0.3-1.1,0.4C398.4,278.1,401.3,277.4,396,277.2z"/>
</g>
<g>
	<g>
		<path class="st1" d="M127.8,197.7c-0.3,3.4-0.8,7.3-1.5,11.6l-0.5,2.9l-18.7-1.6c-0.2-3.4-0.1-6.8,0.2-10.5
			c0.2-2.2,0.5-3.7,0.8-4.7c0.6-1.6,1.6-2.9,3.2-4l0-0.4c-1.1-0.1-2-0.6-2.6-1.5c-0.5-0.8-0.7-1.7-0.6-2.8c0.2-2.7,1.2-4.1,2.9-4
			c-0.1,1.1,0.1,1.8,0.6,2c0.4,0.2,1.8,0.4,4.3,0.6l6.1,0.5c2.8,0.2,4.6,1.3,5.3,3.3C128.1,190.7,128.2,193.5,127.8,197.7z
			 M125.1,198.5c0.3-2.9-0.3-4.9-1.8-5.9c-0.9-0.6-2.7-1.1-5.4-1.3c-0.8-0.1-2-0.1-3.6-0.1c-1.5,1.2-2.5,2.4-3.1,3.5
			c-0.5,1-0.9,2.3-1,3.8c-0.3,3.1,0.3,5,1.6,5.9c0.8,0.5,2.8,0.9,6.1,1.2c2.7,0.2,4.7,0.1,6.1-0.4
			C124.5,203.4,124.9,201.2,125.1,198.5z"/>
		<path class="st1" d="M141.2,192.9c-0.3,4-2.3,7.1-5.9,9.3l-1.2-1.3c2.2-2.1,3.3-3.8,3.5-5.3c0.1-1.6-0.4-2.4-1.5-2.5l-1.3-0.1
			c-3.1-0.3-4.5-1.8-4.3-4.5c0.2-2.5,1.3-3.7,3.1-3.7c-0.1,1.4,0.3,2.1,1.1,2.2l2.3,0.2c1.3,0.1,2.4,0.7,3.2,1.6
			C141,189.9,141.3,191.3,141.2,192.9z"/>
		<path class="st1" d="M163.8,193.6c-0.1,0.7-0.3,1.4-0.6,2l-1.8-0.2c-0.2,0.4-0.5,0.8-1,1.2c-1.8,1.6-3.8,3.5-6.2,5.9
			c0.2,0.2,2.3,2.1,6.2,5.8c-0.6,2.3-1.5,4.6-2.8,6.7l-16.2-1.4l2.9-5.7l10.7,1.3c0.2-0.1,0.4-0.3,0.5-0.6c-0.9-0.8-1.6-1.5-2.3-2.1
			c-1.4-1.4-2.7-2.9-3.7-4.3c-0.6-0.9-1-1.8-1.1-2.8c-0.1-0.8-0.1-2.4,0.1-5l-1.3-0.1c-3-0.3-4.3-1.9-4.1-4.8c0.2-2.4,1.2-3.6,3-3.4
			c-0.1,1.2,0.3,2,1.3,2.2l1.6,0.4c1.7,0.4,2.5,1.3,2.4,2.5c0,0.1-0.1,0.7-0.2,1.6c-0.2,0.9-0.2,1.5-0.3,1.7
			c-0.3,3.3,0.3,5.5,1.8,6.7c2-2,3.6-3.5,4.9-4.6c0.7-0.6,1.1-1,1.1-1.3c-2.6-0.2-3.8-1.7-3.5-4.6c0.2-2.4,1.2-3.6,3-3.5
			c-0.1,1.2,0.4,1.9,1.4,2.1l1.4,0.3c1.4,0.3,2.3,0.8,2.6,1.4C163.9,191.4,164,192.2,163.8,193.6z"/>
		<path class="st1" d="M186.5,195.5c-0.1,0.7-0.3,1.4-0.6,2l-1.8-0.2c-0.2,0.4-0.5,0.8-1,1.2c-1.8,1.6-3.8,3.5-6.2,5.9
			c0.2,0.2,2.3,2.1,6.2,5.8c-0.6,2.3-1.5,4.6-2.8,6.7l-16.2-1.4l2.9-5.7l10.7,1.3c0.2-0.1,0.4-0.3,0.5-0.6c-0.9-0.8-1.6-1.5-2.3-2.1
			c-1.4-1.4-2.7-2.9-3.7-4.3c-0.6-0.9-1-1.8-1.1-2.8c-0.1-0.8-0.1-2.4,0.1-5l-1.3-0.1c-3-0.3-4.3-1.9-4.1-4.8c0.2-2.4,1.2-3.6,3-3.4
			c-0.1,1.2,0.3,2,1.3,2.2l1.6,0.4c1.7,0.4,2.5,1.3,2.4,2.5c0,0.1-0.1,0.7-0.3,1.6c-0.2,0.9-0.2,1.5-0.3,1.7
			c-0.3,3.3,0.3,5.5,1.8,6.7c2-2,3.6-3.5,4.9-4.6c0.7-0.6,1.1-1,1.1-1.3c-2.6-0.2-3.8-1.7-3.5-4.6c0.2-2.4,1.2-3.6,3-3.5
			c-0.1,1.2,0.4,1.9,1.4,2.1l1.4,0.3c1.4,0.3,2.3,0.8,2.6,1.4C186.5,193.4,186.6,194.2,186.5,195.5z"/>
		<path class="st1" d="M197.6,216.1c-1.3,1.3-2.8,2.3-4.5,3c0.7-3.6,1.3-7.7,1.7-12.5c0.3-3.8,0.4-6.1,0.1-6.9
			c-0.3-0.9-1.5-1.5-3.5-1.7c-2.9-0.3-4.2-1.8-4-4.6c0.2-2.2,1.2-3.5,3.1-3.8c-0.1,1.1,0.1,1.7,0.5,2c0.3,0.2,0.9,0.4,1.8,0.4
			l3.3,0.3c1.8,0.2,2.6,1.6,2.4,4.4c-0.1,0.7-0.2,2-0.4,4c-0.2,2-0.3,3.3-0.4,3.9C197.6,207.3,197.5,211,197.6,216.1z"/>
		<path class="st1" d="M224.3,206.6c-0.4,4.2-1.9,8.8-4.6,13.8l-12.8-1.1l2.5-5.8l5.7,0.5c1.6,0.1,2.9,0.1,4-0.1
			c1.1-1.2,1.7-2.8,1.9-5c0.2-2.1-0.4-4-1.7-5.6c-1.3-1.6-3-2.5-5.1-2.7c-3.3-0.3-5.8,1.4-7.8,5c-1.3,2.5-2.1,5.2-2.4,8
			c-0.1,1.4-0.1,2.5,0,3.5l-3.5,2.2c-0.1-1.1-0.1-2.3,0-3.8c0.5-5.7,3-10.8,7.4-15.3l0-0.6c-0.1-0.2-1.1-0.5-2.8-1.1
			c-1.9-0.6-2.7-2-2.5-4.2c0.2-2.1,1.2-3.2,3.2-3.4c-0.3,1.3,0,2,0.7,2.2l2.3,0.5c1.5,0.4,2.2,1.3,2,3l-0.1,1.5l0.3,0.5
			c1.1-0.3,3.1-2,5.8-5.3C222.3,196.4,224.8,200.7,224.3,206.6z"/>
		<path class="st1" d="M246.7,216.7l-1.4,5.9l-20.8-1.8l1.7-5.9l5.8,0.5c5.3,0.5,8.6,0.6,9.9,0.3c0.6-1.5,1.1-3.5,1.3-6
			c0.3-3.5-0.1-5.7-1.2-6.7c-0.7-0.6-2.1-1-4.2-1.1l-5.5-0.3c-1.7-0.1-3-0.4-3.8-0.9c-1.1-0.7-1.6-2-1.4-3.8c0.2-2.5,1.2-3.7,3-3.9
			c0,1.7,0.7,2.5,2.2,2.6l6.3,0.3c3.8,0.2,6.2,1.2,7.2,3c0.6,1.1,0.8,3.1,0.6,5.9c-0.4,4.6-1.1,8.4-2.2,11.5L246.7,216.7z"/>
		<path class="st1" d="M278.4,202.4c-0.2,1.7-0.6,3.5-1.4,5.2c-0.7,1.4-2,3.6-3.9,6.5l-6.9,10.3l-13.4-1.2c-1.4-5.7-2-9.8-1.8-12.3
			c0.2-1.9,0.9-4.5,2.2-7.6l-0.7-0.1c-2.3-0.2-3.3-1.7-3-4.6c0.1-1,0.4-1.8,0.9-2.4c0.6-0.7,1.3-1,2.2-1c-0.1,1.2,0.3,2,1.1,2.1
			l1.8,0.4c0.9,0.3,1.4,0.6,1.7,1c0.2,0.4,0.3,1,0.2,2c-0.1,1.1-0.3,2.1-0.6,2.9l-1.3-0.1c-0.9,2-1.4,3.9-1.6,5.8
			c-0.2,2,0.3,4.4,1.5,7.3c0.3,0.8,0.9,1.3,1.6,1.3c2.9-5.9,4.8-10.5,5.8-13.7c-2.3-0.2-3.3-1.7-3-4.6c0.1-1,0.4-1.8,0.9-2.4
			c0.6-0.7,1.3-1,2.2-1c-0.1,1.2,0.3,2,1.1,2.1l1.8,0.4c0.9,0.2,1.4,0.5,1.7,0.9c0.2,0.4,0.3,1.1,0.2,2.1c-0.1,1.3-0.5,2.2-1.2,2.9
			l-1.5-0.1c-1.1,3.4-3,7.9-5.8,13.7c0.7,0.1,1.2,0.2,1.5,0.2c4,0.3,7.3-1.3,9.9-4.8c1.8-2.5,2.8-4.8,3-7.1c0.1-0.6,0-1.1,0-1.4
			l-0.5,0c-2.3-0.2-3.3-1.7-3-4.6c0.1-1,0.4-1.8,0.9-2.4c0.6-0.7,1.3-1,2.2-1c-0.1,1.2,0.3,2,1.1,2.1l1.8,0.4c1,0.2,1.6,0.5,1.9,0.7
			C278.3,200.7,278.4,201.4,278.4,202.4z"/>
		<path class="st1" d="M310.3,226c-1.7,1.4-3.1,2.3-4.1,2.7l0.7-7.3c0.2-2.4,0.4-3.8,0.4-4.1c0.3-3.4,0.3-5.8-0.1-7.1
			c-0.4-1.4-1.9-2.3-4.5-2.5l-5.7-0.5c-2.3,2.2-3.5,4-3.6,5.3c-0.1,1.7,0.5,4.9,1.9,9.5l-1.3,4.9l-7.5-0.6l1.5-5.9l3.5,0.3
			c-0.6-3.4-0.9-6-0.7-7.9c0.1-1.7,1.2-3.6,3.3-5.8l-1-0.1c-1.9-0.2-2.8-1.7-2.5-4.6c0.2-2.1,1.2-3.2,3-3.5
			c-0.1,1.4,0.5,2.2,1.8,2.3l7.9,0.7c2,0.2,3.5,0.6,4.7,1.3c2,1.2,2.9,3.6,2.6,7.2c-0.3,3.8-0.5,7.2-0.4,10.2L310.3,226z"/>
		<path class="st1" d="M323.3,227c-1.3,1.3-2.8,2.3-4.5,3c0.7-3.6,1.3-7.7,1.7-12.5c0.3-3.8,0.4-6.1,0.1-6.9
			c-0.3-0.9-1.5-1.5-3.5-1.7c-2.9-0.3-4.2-1.8-4-4.6c0.2-2.2,1.2-3.5,3.1-3.8c-0.1,1.1,0.1,1.7,0.5,2c0.3,0.2,0.9,0.4,1.8,0.4
			l3.3,0.3c1.8,0.2,2.6,1.6,2.4,4.4c-0.1,0.7-0.2,2-0.4,4s-0.3,3.3-0.4,3.9C323.3,218.2,323.2,222,323.3,227z"/>
		<path class="st1" d="M350.3,211.4c-1.7,1.7-2.6,3.5-2.7,5.3c-0.1,0.8,0,1.7,0.1,2.9l0.6,5.2c0.2,1.5,0.2,2.5,0.2,2.9
			c-0.1,1.3-1.7,2.8-4.8,4.6l1-12.7c0-1.1,0.1-1.9,0.1-2.3c0.1-1.1,0.5-2.2,1.1-3.4c0.6-1.2,1-2,1-2.4l-11.7-1
			c-1.2,1.1-1.9,1.7-2,1.9c-0.4,0.6-0.7,1.6-0.8,3l-0.2,2.4l-0.3,6.4c0,0.8-0.1,1.6-0.1,2.1c-0.1,1.4-1.7,2.9-4.7,4.5l1.5-13.8
			c0.2-1.6,0.5-2.9,1-3.8c0.4-0.8,1.3-1.8,2.6-3c-2.7-0.2-3.9-1.7-3.6-4.3c0.2-2.3,1.2-3.5,3-3.7c-0.1,1.3,0.4,2,1.7,2.1l14,1.2
			c1.6,0.1,2.6,0.7,3,1.6c0.3,0.7,0.4,1.8,0.3,3.4L350.3,211.4z"/>
		<path class="st1" d="M362.9,212.3c-0.3,4-2.3,7.1-5.9,9.3l-1.2-1.3c2.2-2.1,3.3-3.8,3.5-5.3c0.1-1.6-0.4-2.4-1.5-2.5l-1.3-0.1
			c-3.1-0.3-4.5-1.8-4.2-4.5c0.2-2.5,1.3-3.7,3.1-3.7c-0.1,1.4,0.3,2.1,1.1,2.2l2.3,0.2c1.3,0.1,2.4,0.7,3.2,1.6
			C362.7,209.2,363.1,210.6,362.9,212.3z"/>
		<path class="st1" d="M382.7,222.4c-0.3,3.8-1.4,6.8-3.3,9.2c-1,1.2-2.3,1.9-3.9,2.1c-1,0.1-3.3,0-7-0.3l-6.2-0.5l2.2-5.8l9,0.8
			c4,0.3,6.2-1.8,6.6-6.3c0.3-3.1-0.5-5.2-2.2-6.4c-0.9-0.6-2.6-1.1-4.9-1.3c-2.8-0.1-4.3-0.2-4.6-0.2c-1.1-0.1-2-0.6-2.6-1.6
			c-0.6-0.8-0.8-1.7-0.7-2.6c0.2-2.7,1.3-4.1,3.1-4.3c-0.1,1.1,0.1,1.9,0.7,2.3c0.4,0.2,1.1,0.4,2.4,0.5c0.2,0,1.1,0.1,2.4,0.1
			c1.4,0.1,2.2,0.1,2.5,0.1c2.3,0.2,4,1.1,5,2.8C382.7,213.2,383.2,217,382.7,222.4z"/>
		<path class="st1" d="M395.2,233.3c-1.3,1.3-2.8,2.3-4.5,3c0.7-3.6,1.3-7.7,1.7-12.5c0.3-3.8,0.4-6.1,0.1-6.9
			c-0.3-0.9-1.5-1.5-3.5-1.7c-2.9-0.3-4.2-1.8-4-4.6c0.2-2.2,1.2-3.5,3.1-3.8c-0.1,1.1,0.1,1.7,0.5,2c0.3,0.2,0.9,0.4,1.8,0.4
			l3.3,0.3c1.8,0.2,2.6,1.6,2.4,4.4c-0.1,0.7-0.2,2-0.4,4c-0.2,2-0.3,3.3-0.4,3.9C395.2,224.5,395.1,228.2,395.2,233.3z"/>
		<path class="st1" d="M421.9,223.8c-0.4,4.2-1.9,8.8-4.6,13.8l-12.8-1.1l2.5-5.8l5.7,0.5c1.6,0.1,2.9,0.1,4-0.1
			c1.1-1.2,1.7-2.8,1.9-5c0.2-2.1-0.4-4-1.7-5.6s-3-2.5-5.1-2.7c-3.3-0.3-5.8,1.4-7.8,5c-1.3,2.5-2.1,5.2-2.4,8
			c-0.1,1.4-0.1,2.5,0,3.5l-3.5,2.2c-0.1-1.1-0.1-2.3,0-3.8c0.5-5.7,3-10.8,7.4-15.3l0.1-0.6c-0.1-0.2-1.1-0.5-2.8-1.1
			c-1.9-0.6-2.7-2-2.5-4.2c0.2-2.1,1.2-3.2,3.2-3.4c-0.3,1.3,0,2,0.7,2.2l2.3,0.5c1.5,0.4,2.2,1.3,2,3l-0.1,1.5l0.3,0.5
			c1.1-0.3,3.1-2,5.8-5.3C419.9,213.6,422.4,217.9,421.9,223.8z"/>
		<path class="st1" d="M454.8,238.6c-1.7,1.4-3.1,2.3-4.1,2.7l0.7-7.3c0.2-2.4,0.4-3.8,0.4-4.1c0.3-3.4,0.3-5.8-0.1-7.1
			c-0.4-1.4-1.9-2.3-4.5-2.5l-5.7-0.5c-2.3,2.2-3.5,4-3.6,5.3c-0.1,1.7,0.5,4.9,1.9,9.5l-1.3,4.9l-7.5-0.6l1.5-5.9l3.5,0.3
			c-0.6-3.4-0.9-6-0.7-7.9c0.1-1.7,1.2-3.6,3.3-5.8l-1-0.1c-1.9-0.2-2.8-1.7-2.5-4.6c0.2-2.1,1.2-3.2,3-3.5
			c-0.1,1.4,0.5,2.2,1.8,2.3l7.9,0.7c2,0.2,3.5,0.6,4.7,1.3c2,1.2,2.9,3.6,2.6,7.2c-0.3,3.8-0.5,7.2-0.4,10.2L454.8,238.6z"/>
		<path class="st1" d="M467.8,239.6c-1.3,1.3-2.8,2.3-4.5,3c0.7-3.6,1.3-7.7,1.7-12.5c0.3-3.8,0.4-6.1,0.1-6.9
			c-0.3-0.9-1.5-1.5-3.5-1.7c-2.9-0.3-4.2-1.8-4-4.6c0.2-2.2,1.2-3.5,3.1-3.8c-0.1,1.1,0.1,1.7,0.5,2c0.3,0.2,0.9,0.4,1.8,0.4
			l3.3,0.3c1.8,0.2,2.6,1.6,2.4,4.4c-0.1,0.7-0.2,2-0.4,4c-0.2,2-0.3,3.3-0.4,3.9C467.8,230.8,467.7,234.6,467.8,239.6z"/>
		<path class="st1" d="M474.2,252.2c-1.4,1.3-2.9,2.2-4.5,3l2.3-22.6c0.1-0.8,0.2-1.8,0.5-3.1c0.8-1.8,2-2.6,3.5-2.4
			c-0.6,0.7-1,1.6-1.1,2.7c-0.1,0.3-0.1,1.2-0.2,2.7L474.2,252.2z M491.9,226c-0.2,2.1-0.7,3.7-1.5,4.9c-0.6,0.8-1.7,1.8-3.4,3.1
			l-3.5,2.5c-0.8,0.6-1.4,1.4-1.6,2.5l-0.4,2.8c-0.2,0.9-0.9,1.3-2.1,1.2c-1.1-0.1-1.7-0.5-1.9-1.2c-0.1-0.3-0.1-1.1,0.1-2.5
			c0.1-1,1.2-2.3,3.4-4l3.9-2.9c2-1.5,3.1-3.4,3.3-5.5c0.2-2-1.2-3.2-4-3.4c-0.3,0-0.7,0-1.1-0.1l-4.7-0.2c-4-0.1-5.9-1.7-5.6-4.7
			c0.2-2.6,1.3-3.9,3.3-3.7c-0.1,0.9,0,1.5,0.1,1.8c0.3,0.3,0.9,0.6,2,0.6c0.3,0,0.8,0.1,1.2,0.1l4.7,0.2
			C489.8,217.7,492.4,220.5,491.9,226z"/>
		<path class="st1" d="M504.3,224.6c-0.3,4-2.3,7.1-5.9,9.3l-1.2-1.3c2.2-2.1,3.3-3.8,3.5-5.3c0.1-1.6-0.4-2.4-1.5-2.5l-1.3-0.1
			c-3.1-0.3-4.5-1.8-4.3-4.5c0.2-2.5,1.3-3.7,3.1-3.7c-0.1,1.4,0.3,2.1,1.1,2.2l2.3,0.2c1.3,0.1,2.4,0.7,3.2,1.6
			C504.1,221.5,504.5,222.9,504.3,224.6z"/>
		<path class="st1" d="M525,227l-1.6-0.1c-1.4,2.2-2.1,3.8-2.1,4.7c-0.1,1.2-0.1,2.4,0.1,3.6l0.6,5.6c0.1,0.8,0.1,1.5,0,2.1
			c-0.1,1.4-1.7,2.9-4.7,4.5l0.7-8.6c0-0.3,0.1-1.3,0.2-3.1c0.1-1.8,0.1-2.8,0.2-3.2c0.1-1.2,0.5-2.3,1.3-3.3c0.7-1,1.1-1.7,1.1-1.9
			c0-0.1,0-0.3-0.1-0.6l-10.8-0.9c-3.3-0.3-4.8-1.8-4.5-4.6c0.2-2.3,1.3-3.5,3.3-3.5c0,0.2-0.1,0.3-0.1,0.5
			c-0.1,0.8,0.2,1.3,0.8,1.5c0.3,0.1,1,0.2,2.1,0.3l9.9,0.9c1.7,0.2,2.8,0.7,3.3,1.6C525.2,223.1,525.2,224.7,525,227z"/>
		<path class="st1" d="M546.6,242.9l-1.4,5.9l-20.8-1.8l1.7-5.9l5.8,0.5c5.3,0.5,8.6,0.6,9.9,0.3c0.7-1.5,1.1-3.5,1.3-6
			c0.3-3.5-0.1-5.7-1.2-6.7c-0.7-0.6-2.1-1-4.2-1.1l-5.5-0.3c-1.7-0.1-3-0.4-3.8-0.9c-1.1-0.7-1.6-2-1.4-3.8c0.2-2.5,1.2-3.7,3-3.9
			c0,1.7,0.7,2.5,2.2,2.6l6.3,0.3c3.8,0.2,6.2,1.2,7.2,3c0.6,1.1,0.8,3.1,0.6,5.9c-0.4,4.6-1.1,8.4-2.2,11.5L546.6,242.9z"/>
		<path class="st1" d="M554.7,235.7c-0.4,1.1-0.7,2-0.7,2.8c-0.1,0.9-0.1,1.7-0.1,2.3l-0.1,3.5c0,1.1-0.1,1.8-0.1,1.9
			c-0.1,1.3-1.5,2.7-4.2,4c0-0.5,0.4-4.1,1.1-10.9c0.1-1.1,0.3-1.7,0.6-2.1c0.3-0.3,1.4-1,3.2-1.9L554.7,235.7z M571.6,230.6
			c-1.8,2.5-2.8,4.2-2.8,5.2c-0.1,1.2-0.1,2.4,0.1,3.6l0.6,5.6c0.1,0.8,0.1,1.5,0,2.1c-0.1,1.4-1.7,2.9-4.7,4.5l0.7-8.6
			c0-0.3,0.1-1.3,0.2-3.1s0.1-2.8,0.2-3.2c0.1-1.2,0.5-2.3,1.3-3.3c0.8-1,1.1-1.7,1.2-1.9c0-0.1,0-0.3-0.1-0.6l-13.1-1.1
			c-3.3-0.3-4.8-1.8-4.6-4.6c0.2-2.3,1.3-3.5,3.3-3.5c0,0.2-0.1,0.3-0.1,0.5c-0.1,0.8,0.2,1.3,0.8,1.5c0.3,0.1,1,0.2,2.2,0.3
			l12.3,1.1c2.1,0.2,3,1.8,2.7,4.8C571.7,230,571.7,230.3,571.6,230.6z"/>
		<path class="st1" d="M602.4,234.3c-0.2,2-0.8,3.7-1.7,5.3c-1,1.6-2.8,3.4-5.2,5.4c-2,1.7-3.1,3.2-3.2,4.5
			c-0.1,1.3-0.3,2.2-0.5,2.6c-0.4,0.6-1.1,0.9-2.1,0.8c-1.4-0.1-2-1.1-1.9-2.9c0.1-1.4,0.6-2.4,1.5-3.3c1.3-1,2.7-2.1,4.5-3.5
			c1.8-1.5,3-2.6,3.5-3.3c0.8-1,1.3-2.2,1.4-3.6c0.2-2-0.7-3.1-2.6-3.3l-7.3-0.6c-1.8-0.2-3-0.5-3.5-1.2c-0.7-0.8-1-2.5-0.8-5
			c0.2-2.8,0.9-5,2-6.5c-0.2-0.4-0.8-0.9-1.5-1.4c-0.9-0.5-1.3-1.2-1.2-2c0.2-2,1-3.3,2.5-4l0,0.2c0,0.5,0.8,1.2,2.5,2.2
			c1.1,0.6,1.6,1.4,1.6,2.2c0,0.4-0.5,1.4-1.4,2.9c-0.9,1.5-1.4,2.9-1.5,4c-0.1,1.2,0.3,2,1.1,2.4c0.5,0.2,1.6,0.4,3.4,0.6l4.2,0.4
			c2.4,0.2,4,0.6,4.8,1.3C602.1,229.5,602.6,231.4,602.4,234.3z"/>
		<path class="st1" d="M622.5,243.2c-0.3,3.8-1.4,6.8-3.3,9.2c-1,1.2-2.3,1.9-3.9,2.1c-1,0.1-3.3,0-7-0.3l-6.2-0.5l2.2-5.8l9,0.8
			c4,0.3,6.2-1.8,6.6-6.3c0.3-3.1-0.5-5.2-2.2-6.4c-0.9-0.6-2.6-1.1-4.9-1.3c-2.8-0.1-4.3-0.2-4.6-0.2c-1.1-0.1-2-0.6-2.6-1.6
			c-0.6-0.8-0.8-1.7-0.7-2.6c0.2-2.7,1.3-4.1,3.1-4.3c-0.1,1.1,0.1,1.9,0.7,2.3c0.3,0.2,1.1,0.4,2.4,0.5c0.2,0,1.1,0.1,2.4,0.1
			c1.4,0.1,2.2,0.1,2.5,0.1c2.3,0.2,4,1.1,5,2.8C622.5,234.1,622.9,237.9,622.5,243.2z"/>
		<path class="st2" d="M94.9,259.4l-4.3,4.1l-3.8-4.7l4.4-3.9L94.9,259.4z M94.4,248.2l-3.1,4.5l-2.3-5l1-12l5.5,0.5L94.4,248.2z"/>
		<path class="st2" d="M117.5,262.6c-1.2,1.1-2.5,2-4.1,2.6c0.5-3.1,0.8-5.1,0.9-6.2c0.3-2.7,0.6-4.7,0.7-6.2c0-0.3,0.1-1.2,0.2-2.7
			c0.1-1.5,0.2-2.5,0.2-2.7c0.2-2-1.2-3.1-4.1-3.3l-5-0.2c-3.6-0.1-5.2-1.8-5-4.9c0.2-2.3,1.2-3.5,3-3.7c-0.1,0.9,0,1.5,0.3,1.8
			c0.4,0.6,1.4,0.9,3,0.9l5,0.2c3.2,0.1,5,1.2,5.6,3.2c0.2,0.9,0.1,3.5-0.2,7.7c-0.2,2.1-0.3,5.2-0.4,9.2L117.5,262.6z"/>
		<path class="st2" d="M142.2,264.5c-1.7,1.4-3.1,2.3-4.1,2.7l0.7-7.3c0.2-2.4,0.4-3.8,0.4-4.1c0.3-3.4,0.3-5.8-0.1-7.1
			c-0.4-1.4-1.9-2.3-4.5-2.5l-5.7-0.5c-2.3,2.2-3.5,4-3.6,5.3c-0.1,1.7,0.5,4.9,1.9,9.5l-1.3,4.9l-7.5-0.6l1.5-5.9l3.5,0.3
			c-0.6-3.4-0.9-6-0.7-7.9c0.1-1.7,1.2-3.6,3.3-5.8l-1-0.1c-1.9-0.2-2.8-1.7-2.5-4.6c0.2-2.1,1.2-3.2,3-3.5
			c-0.1,1.4,0.5,2.2,1.8,2.3l7.9,0.7c2,0.2,3.5,0.6,4.7,1.3c2,1.2,2.9,3.6,2.6,7.2c-0.3,3.8-0.5,7.2-0.4,10.2L142.2,264.5z"/>
		<path class="st2" d="M155.2,265.5c-1.3,1.3-2.8,2.3-4.5,3c0.7-3.6,1.3-7.7,1.7-12.5c0.3-3.8,0.4-6.1,0.1-6.9
			c-0.3-0.9-1.5-1.5-3.5-1.7c-2.9-0.3-4.2-1.8-4-4.6c0.2-2.2,1.2-3.5,3.1-3.8c-0.1,1.1,0.1,1.7,0.5,2c0.3,0.2,0.9,0.4,1.8,0.4
			l3.3,0.3c1.8,0.2,2.6,1.6,2.4,4.4c-0.1,0.7-0.2,2-0.4,4c-0.2,2-0.3,3.3-0.4,3.9C155.2,256.7,155.2,260.5,155.2,265.5z"/>
		<path class="st2" d="M169.1,248.5c-0.3,4-2.3,7.1-5.9,9.3l-1.2-1.3c2.2-2.1,3.3-3.8,3.5-5.3c0.1-1.6-0.4-2.4-1.5-2.5l-1.3-0.1
			c-3.1-0.3-4.5-1.8-4.2-4.5c0.2-2.5,1.3-3.7,3.1-3.7c-0.1,1.4,0.3,2.1,1.1,2.2l2.3,0.2c1.3,0.1,2.4,0.7,3.2,1.6
			C168.9,245.5,169.3,246.8,169.1,248.5z"/>
		<path class="st2" d="M190.4,265l-1.4,5.9l-20.8-1.8l1.7-5.9l5.8,0.5c5.3,0.5,8.6,0.6,9.9,0.3c0.6-1.5,1.1-3.5,1.3-6
			c0.3-3.5-0.1-5.7-1.2-6.7c-0.7-0.6-2.1-1-4.2-1.1L176,250c-1.7-0.1-3-0.4-3.8-0.9c-1.1-0.7-1.6-2-1.4-3.8c0.2-2.5,1.2-3.7,3-3.9
			c0,1.7,0.7,2.5,2.2,2.6l6.3,0.3c3.8,0.2,6.2,1.2,7.2,3c0.6,1.1,0.8,3.1,0.6,5.9c-0.4,4.6-1.1,8.4-2.2,11.5L190.4,265z"/>
		<path class="st2" d="M223.5,271.6c-1.7,1.4-3.1,2.3-4.1,2.7l0.7-7.3c0.2-2.4,0.4-3.8,0.4-4.1c0.3-3.4,0.3-5.8-0.1-7.1
			c-0.4-1.4-1.9-2.3-4.5-2.5l-5.7-0.5c-2.3,2.2-3.5,4-3.6,5.3c-0.1,1.7,0.5,4.9,1.9,9.5l-1.3,4.9l-7.5-0.6l1.5-5.9l3.5,0.3
			c-0.6-3.4-0.9-6-0.7-7.9c0.1-1.7,1.2-3.6,3.3-5.8l-1-0.1c-1.9-0.2-2.8-1.7-2.5-4.6c0.2-2.1,1.2-3.2,3-3.5
			c-0.1,1.4,0.5,2.2,1.8,2.3l7.9,0.7c2,0.2,3.5,0.6,4.7,1.3c2,1.2,2.9,3.6,2.6,7.2c-0.3,3.8-0.5,7.2-0.4,10.2L223.5,271.6z"/>
		<path class="st2" d="M236.5,272.6c-1.3,1.3-2.8,2.3-4.5,3c0.7-3.6,1.3-7.7,1.7-12.5c0.3-3.8,0.4-6.1,0.1-6.9
			c-0.3-0.9-1.5-1.5-3.5-1.7c-2.9-0.3-4.2-1.8-4-4.6c0.2-2.2,1.2-3.5,3.1-3.8c-0.1,1.1,0.1,1.7,0.5,2c0.3,0.2,0.9,0.4,1.8,0.4
			l3.3,0.3c1.8,0.2,2.6,1.6,2.4,4.4c-0.1,0.7-0.2,2-0.4,4c-0.2,2-0.3,3.3-0.4,3.9C236.5,263.8,236.4,267.6,236.5,272.6z"/>
		<path class="st2" d="M263.2,263.1c-0.4,4.2-1.9,8.8-4.6,13.8l-12.8-1.1l2.5-5.8l5.7,0.5c1.6,0.1,2.9,0.1,4-0.1
			c1.1-1.2,1.7-2.8,1.9-5c0.2-2.1-0.4-4-1.7-5.6s-3-2.5-5.1-2.7c-3.2-0.3-5.8,1.4-7.8,5c-1.3,2.5-2.1,5.2-2.4,8
			c-0.1,1.4-0.1,2.5,0,3.5l-3.5,2.2c-0.1-1.1-0.1-2.3,0-3.8c0.5-5.7,3-10.8,7.4-15.3l0.1-0.6c-0.1-0.2-1.1-0.5-2.8-1.1
			c-1.9-0.6-2.7-2-2.5-4.2c0.2-2.1,1.2-3.2,3.2-3.4c-0.3,1.3,0,2,0.7,2.2l2.3,0.5c1.5,0.4,2.2,1.3,2,3l-0.1,1.5l0.3,0.5
			c1.1-0.3,3.1-2,5.8-5.3C261.2,252.9,263.7,257.3,263.2,263.1z"/>
		<path class="st2" d="M285.2,259.8c-0.2,2-0.8,3.7-1.7,5.3c-1.1,1.6-2.8,3.4-5.2,5.4c-2,1.7-3.1,3.2-3.2,4.5
			c-0.1,1.3-0.3,2.2-0.5,2.6c-0.4,0.6-1.1,0.9-2.1,0.8c-1.4-0.1-2-1.1-1.9-2.9c0.1-1.4,0.6-2.4,1.5-3.3c1.3-1,2.7-2.1,4.5-3.5
			c1.8-1.5,3-2.6,3.5-3.3c0.8-1,1.3-2.2,1.4-3.6c0.2-2-0.7-3.1-2.6-3.3l-7.3-0.6c-1.8-0.2-3-0.5-3.5-1.2c-0.7-0.8-1-2.5-0.8-5
			c0.2-2.8,0.9-5,2-6.5c-0.2-0.4-0.8-0.9-1.5-1.4c-0.9-0.5-1.3-1.2-1.2-2c0.2-2,1-3.3,2.5-4l0,0.2c0,0.5,0.8,1.2,2.5,2.2
			c1.1,0.6,1.6,1.4,1.6,2.2c0,0.4-0.5,1.4-1.4,2.9c-0.9,1.5-1.4,2.9-1.5,4c-0.1,1.2,0.3,2,1.1,2.4c0.5,0.2,1.6,0.4,3.4,0.6l4.2,0.4
			c2.4,0.2,4,0.6,4.9,1.3C284.9,255,285.4,256.9,285.2,259.8z"/>
		<path class="st2" d="M307.8,278.9c-1.7,1.4-3.1,2.3-4.1,2.7l0.7-7.3c0.2-2.4,0.4-3.8,0.4-4.1c0.3-3.4,0.3-5.8-0.1-7.1
			c-0.4-1.4-1.9-2.3-4.5-2.5l-5.7-0.5c-2.3,2.2-3.5,4-3.6,5.3c-0.1,1.7,0.5,4.9,1.9,9.5l-1.3,4.9l-7.5-0.7l1.5-5.9l3.5,0.3
			c-0.6-3.4-0.9-6-0.7-7.9c0.1-1.7,1.2-3.6,3.3-5.8l-1-0.1c-1.9-0.2-2.8-1.7-2.5-4.6c0.2-2.1,1.2-3.2,3-3.5
			c-0.1,1.4,0.5,2.2,1.8,2.3l7.9,0.7c2,0.2,3.5,0.6,4.7,1.3c2,1.2,2.9,3.6,2.6,7.2c-0.3,3.8-0.5,7.2-0.4,10.2L307.8,278.9z"/>
		<path class="st2" d="M339.9,260.9c-0.2,1.7-0.6,3.5-1.4,5.2c-0.7,1.4-2,3.6-3.9,6.5l-6.9,10.3l-13.4-1.2c-1.4-5.7-2-9.8-1.8-12.3
			c0.2-1.9,0.9-4.5,2.2-7.6l-0.7-0.1c-2.3-0.2-3.3-1.7-3-4.6c0.1-1,0.4-1.8,0.9-2.4c0.6-0.7,1.3-1,2.2-1c-0.1,1.2,0.3,2,1.1,2.1
			l1.8,0.4c0.9,0.3,1.4,0.6,1.7,1c0.2,0.4,0.3,1,0.2,2c-0.1,1.1-0.3,2.1-0.6,2.9l-1.3-0.1c-0.9,2-1.4,3.9-1.6,5.8
			c-0.2,2,0.3,4.4,1.5,7.3c0.3,0.8,0.9,1.3,1.6,1.3c2.9-5.9,4.8-10.5,5.8-13.7c-2.3-0.2-3.3-1.7-3-4.6c0.1-1,0.4-1.8,0.9-2.4
			c0.6-0.7,1.3-1,2.2-1c-0.1,1.2,0.3,2,1.1,2.1l1.8,0.4c0.9,0.2,1.4,0.5,1.7,0.9c0.2,0.4,0.3,1.1,0.2,2.1c-0.1,1.3-0.5,2.2-1.2,2.9
			l-1.5-0.1c-1.1,3.4-3,7.9-5.8,13.7c0.7,0.1,1.2,0.2,1.5,0.2c4,0.3,7.3-1.3,9.9-4.8c1.8-2.5,2.8-4.8,3-7.1c0.1-0.6,0-1.1,0-1.4
			l-0.5,0c-2.3-0.2-3.3-1.7-3-4.6c0.1-1,0.4-1.8,0.9-2.4c0.6-0.7,1.3-1,2.2-1c-0.1,1.2,0.3,2,1.1,2.1l1.8,0.4c1,0.2,1.6,0.5,1.9,0.7
			C339.8,259.2,339.9,259.9,339.9,260.9z"/>
		<path class="st2" d="M364.6,271.9c-0.4,4.2-1.9,8.8-4.6,13.8l-12.8-1.1l2.5-5.8l5.7,0.5c1.6,0.1,2.9,0.1,4-0.1
			c1.1-1.2,1.7-2.8,1.9-5c0.2-2.1-0.4-4-1.7-5.6c-1.3-1.6-3-2.5-5.1-2.7c-3.2-0.3-5.8,1.4-7.8,5c-1.3,2.5-2.1,5.2-2.4,8
			c-0.1,1.4-0.1,2.5,0,3.5l-3.5,2.2c-0.1-1.1-0.1-2.3,0-3.8c0.5-5.7,3-10.8,7.4-15.3l0.1-0.6c-0.1-0.2-1.1-0.5-2.8-1.1
			c-1.9-0.6-2.7-2-2.5-4.2c0.2-2.1,1.2-3.2,3.2-3.4c-0.3,1.3,0,2,0.7,2.2l2.3,0.5c1.5,0.4,2.2,1.3,2,3l-0.1,1.5l0.3,0.5
			c1.1-0.3,3.1-2,5.8-5.3C362.6,261.7,365.1,266.1,364.6,271.9z"/>
		<path class="st2" d="M372.5,273c-0.4,1.1-0.7,2-0.7,2.8c-0.1,0.9-0.1,1.7-0.1,2.3l-0.1,3.5c0,1.1,0,1.8-0.1,1.9
			c-0.1,1.3-1.5,2.7-4.2,4c0-0.5,0.4-4.1,1.1-10.9c0.1-1.1,0.3-1.7,0.6-2.1c0.3-0.3,1.4-1,3.2-1.9L372.5,273z M389.4,267.9
			c-1.8,2.5-2.8,4.2-2.8,5.2c-0.1,1.2-0.1,2.4,0.1,3.6l0.6,5.6c0.1,0.8,0.1,1.5,0,2.1c-0.1,1.4-1.7,2.9-4.7,4.5l0.7-8.6
			c0-0.3,0.1-1.3,0.2-3.1c0.1-1.8,0.1-2.8,0.2-3.2c0.1-1.2,0.5-2.3,1.3-3.3c0.8-1,1.1-1.7,1.2-1.9c0-0.1,0-0.3-0.1-0.6l-13.1-1.1
			c-3.3-0.3-4.8-1.8-4.6-4.6c0.2-2.3,1.3-3.5,3.3-3.5c0,0.2-0.1,0.3-0.1,0.5c-0.1,0.8,0.2,1.3,0.8,1.5c0.3,0.1,1,0.2,2.2,0.3
			l12.3,1.1c2.1,0.2,3,1.8,2.7,4.8C389.5,267.3,389.4,267.6,389.4,267.9z"/>
		<path class="st1" d="M412.8,276.5c-0.4,1.1-0.7,2-0.7,2.8c-0.1,0.9-0.1,1.7-0.1,2.3l-0.1,3.5c0,1.1,0,1.8-0.1,1.9
			c-0.1,1.3-1.5,2.7-4.2,4c0-0.5,0.4-4.1,1.1-10.9c0.1-1.1,0.3-1.7,0.6-2.1c0.3-0.3,1.4-1,3.2-1.9L412.8,276.5z M429.7,271.4
			c-1.8,2.5-2.8,4.2-2.8,5.2c-0.1,1.2-0.1,2.4,0.1,3.6l0.6,5.6c0.1,0.8,0.1,1.5,0,2.1c-0.1,1.4-1.7,2.9-4.7,4.5l0.7-8.6
			c0-0.3,0.1-1.3,0.2-3.1c0.1-1.8,0.1-2.8,0.2-3.2c0.1-1.2,0.5-2.3,1.3-3.3c0.8-1,1.1-1.7,1.2-1.9c0-0.1,0-0.3-0.1-0.6l-13.1-1.1
			c-3.3-0.3-4.8-1.8-4.6-4.6c0.2-2.3,1.3-3.5,3.3-3.5c0,0.2-0.1,0.3-0.1,0.5c-0.1,0.8,0.2,1.3,0.8,1.5c0.3,0.1,1,0.2,2.2,0.3
			l12.3,1.1c2.1,0.2,3,1.8,2.7,4.8C429.8,270.8,429.7,271.1,429.7,271.4z"/>
		<path class="st1" d="M451,273.7l-1.6-0.1c-1.3,2.2-2.1,3.8-2.1,4.7c-0.1,1.2-0.1,2.4,0.1,3.6l0.6,5.6c0.1,0.8,0.1,1.5,0,2.1
			c-0.1,1.4-1.7,2.9-4.7,4.5l0.7-8.6c0-0.3,0.1-1.3,0.2-3.1c0.1-1.8,0.1-2.8,0.2-3.2c0.1-1.2,0.5-2.3,1.3-3.3c0.7-1,1.1-1.7,1.1-1.9
			c0-0.1,0-0.3-0.1-0.6l-10.8-0.9c-3.3-0.3-4.8-1.8-4.5-4.6c0.2-2.3,1.3-3.5,3.3-3.5c0,0.2-0.1,0.3-0.1,0.5
			c-0.1,0.8,0.2,1.3,0.8,1.5c0.3,0.1,1,0.2,2.1,0.3l9.9,0.9c1.7,0.2,2.8,0.7,3.3,1.6C451.1,269.8,451.2,271.4,451,273.7z"/>
		<path class="st1" d="M463.1,274.1c-0.3,4-2.3,7.1-5.9,9.3l-1.2-1.3c2.2-2.1,3.3-3.8,3.5-5.3c0.1-1.6-0.4-2.4-1.5-2.5l-1.3-0.1
			c-3.1-0.3-4.5-1.8-4.2-4.5c0.2-2.5,1.3-3.7,3.1-3.7c-0.1,1.4,0.3,2.1,1.1,2.2l2.3,0.2c1.3,0.1,2.4,0.7,3.2,1.6
			C462.9,271.1,463.3,272.4,463.1,274.1z"/>
		<path class="st1" d="M483.9,277.1c-0.2,2-0.8,3.7-1.7,5.3c-1.1,1.6-2.8,3.4-5.2,5.4c-2,1.7-3.1,3.2-3.2,4.5
			c-0.1,1.3-0.3,2.2-0.5,2.6c-0.4,0.6-1.1,0.9-2.1,0.8c-1.4-0.1-2-1.1-1.9-2.9c0.1-1.4,0.6-2.4,1.5-3.3c1.3-1,2.7-2.1,4.5-3.5
			c1.8-1.5,3-2.6,3.5-3.3c0.8-1,1.3-2.2,1.4-3.6c0.2-2-0.7-3.1-2.6-3.3l-7.3-0.6c-1.8-0.2-3-0.5-3.5-1.2c-0.7-0.8-1-2.5-0.8-5
			c0.2-2.8,0.9-5,2-6.5c-0.2-0.4-0.8-0.9-1.5-1.4c-0.9-0.5-1.3-1.2-1.2-2c0.2-2,1-3.3,2.5-4l0,0.2c0,0.5,0.8,1.2,2.5,2.2
			c1.1,0.6,1.6,1.4,1.6,2.2c0,0.4-0.5,1.4-1.4,2.9s-1.4,2.9-1.5,4c-0.1,1.2,0.3,2,1.1,2.4c0.5,0.2,1.6,0.4,3.4,0.6l4.2,0.4
			c2.4,0.2,4,0.6,4.9,1.3C483.6,272.3,484.1,274.2,483.9,277.1z"/>
		<path class="st1" d="M490.9,283.3c-0.4,1.1-0.7,2-0.7,2.8c-0.1,0.9-0.1,1.7-0.1,2.3l-0.1,3.5c0,1.1,0,1.8-0.1,1.9
			c-0.1,1.3-1.5,2.7-4.2,4c0-0.5,0.4-4.1,1.1-10.9c0.1-1.1,0.3-1.7,0.6-2.1c0.3-0.3,1.4-1,3.2-1.9L490.9,283.3z M507.8,278.2
			c-1.8,2.5-2.8,4.2-2.8,5.2c-0.1,1.2-0.1,2.4,0.1,3.6l0.6,5.6c0.1,0.8,0.1,1.5,0,2c-0.1,1.4-1.7,2.9-4.7,4.5l0.7-8.6
			c0-0.3,0.1-1.3,0.2-3.1c0.1-1.8,0.1-2.8,0.2-3.2c0.1-1.2,0.5-2.3,1.3-3.3c0.8-1,1.1-1.7,1.2-1.9c0-0.1,0-0.3-0.1-0.6l-13.1-1.1
			c-3.3-0.3-4.8-1.8-4.6-4.6c0.2-2.3,1.3-3.5,3.3-3.5c0,0.2-0.1,0.3-0.1,0.5c-0.1,0.8,0.2,1.3,0.8,1.5c0.3,0.1,1,0.2,2.2,0.3
			l12.3,1.1c2.1,0.2,3,1.8,2.7,4.8C507.9,277.6,507.8,277.9,507.8,278.2z"/>
		<path class="st1" d="M540.1,299.2c-1.7,1.4-3.1,2.3-4.1,2.7l0.7-7.3c0.2-2.4,0.4-3.8,0.4-4.1c0.3-3.4,0.3-5.8-0.1-7.1
			c-0.4-1.4-1.9-2.3-4.5-2.5l-5.7-0.5c-2.3,2.2-3.5,4-3.6,5.3c-0.1,1.7,0.5,4.9,1.9,9.5l-1.3,4.9l-7.5-0.6l1.5-5.9l3.5,0.3
			c-0.6-3.4-0.9-6-0.7-7.9c0.1-1.7,1.2-3.6,3.3-5.8l-1-0.1c-1.9-0.2-2.8-1.7-2.5-4.6c0.2-2.1,1.2-3.2,3-3.5
			c-0.1,1.4,0.5,2.2,1.8,2.3l7.9,0.7c2,0.2,3.5,0.6,4.7,1.3c2,1.2,2.9,3.6,2.6,7.2c-0.3,3.8-0.5,7.2-0.4,10.2L540.1,299.2z"/>
		<path class="st1" d="M553.1,300.2c-1.3,1.3-2.8,2.3-4.5,3c0.7-3.6,1.3-7.7,1.7-12.5c0.3-3.8,0.4-6.1,0.1-6.9
			c-0.3-1-1.5-1.5-3.5-1.7c-2.9-0.3-4.2-1.8-4-4.6c0.2-2.2,1.2-3.5,3.1-3.8c-0.1,1.1,0.1,1.7,0.5,2c0.3,0.2,0.9,0.4,1.8,0.4l3.3,0.3
			c1.8,0.2,2.6,1.6,2.4,4.4c-0.1,0.7-0.2,2-0.4,4s-0.3,3.3-0.4,3.9C553.1,291.4,553,295.1,553.1,300.2z"/>
		<path class="st1" d="M576,285.2c-0.2,2-0.8,3.7-1.7,5.3c-1.1,1.6-2.8,3.4-5.2,5.4c-2,1.7-3.1,3.2-3.2,4.5
			c-0.1,1.3-0.3,2.2-0.5,2.6c-0.4,0.6-1.1,0.9-2.1,0.8c-1.4-0.1-2-1.1-1.9-2.9c0.1-1.4,0.6-2.4,1.5-3.3c1.3-1,2.7-2.1,4.5-3.5
			c1.8-1.5,3-2.6,3.5-3.3c0.8-1,1.3-2.2,1.4-3.6c0.2-2-0.7-3.1-2.6-3.3l-7.3-0.6c-1.8-0.2-3-0.5-3.5-1.2c-0.7-0.8-1-2.5-0.8-5
			c0.2-2.8,0.9-5,2-6.5c-0.2-0.4-0.8-0.9-1.5-1.4c-0.9-0.5-1.3-1.2-1.2-2c0.2-2,1-3.3,2.5-4l0,0.2c0,0.5,0.8,1.2,2.5,2.2
			c1.1,0.6,1.6,1.4,1.6,2.2c0,0.4-0.5,1.4-1.4,2.9s-1.4,2.9-1.5,4c-0.1,1.2,0.3,2,1.1,2.4c0.5,0.2,1.6,0.4,3.4,0.6l4.2,0.4
			c2.4,0.2,4,0.6,4.9,1.3C575.8,280.3,576.3,282.3,576,285.2z"/>
		<path class="st1" d="M588.1,285c-0.3,4-2.3,7.1-5.9,9.3l-1.2-1.3c2.2-2.1,3.3-3.8,3.5-5.3c0.1-1.6-0.4-2.4-1.5-2.5l-1.3-0.1
			c-3.1-0.3-4.5-1.8-4.3-4.5c0.2-2.5,1.3-3.7,3.1-3.7c-0.1,1.4,0.3,2.1,1.1,2.2l2.3,0.2c1.3,0.1,2.4,0.7,3.2,1.6
			C587.9,282,588.2,283.3,588.1,285z"/>
		<path class="st1" d="M609.3,301.5l-1.4,5.9l-20.8-1.8l1.7-5.9l5.8,0.5c5.3,0.5,8.6,0.6,9.9,0.3c0.6-1.5,1.1-3.5,1.3-6
			c0.3-3.5-0.1-5.7-1.2-6.7c-0.7-0.6-2.1-1-4.2-1.1l-5.5-0.3c-1.7-0.1-3-0.4-3.8-0.9c-1.1-0.7-1.6-2-1.4-3.8c0.2-2.5,1.2-3.7,3-3.9
			c0,1.7,0.7,2.5,2.2,2.6l6.3,0.3c3.8,0.2,6.2,1.2,7.2,3c0.6,1.1,0.8,3.1,0.6,5.9c-0.4,4.6-1.1,8.4-2.2,11.5L609.3,301.5z"/>
		<path class="st1" d="M635.6,289.4c-1.7,1.7-2.6,3.5-2.7,5.3c-0.1,0.8,0,1.7,0.1,2.9l0.6,5.2c0.2,1.5,0.2,2.5,0.2,2.9
			c-0.1,1.3-1.7,2.8-4.8,4.6l1-12.7c0-1.1,0.1-1.9,0.1-2.3c0.1-1.1,0.5-2.2,1.1-3.4c0.6-1.2,1-2,1-2.4l-11.7-1
			c-1.2,1.1-1.9,1.7-2,1.9c-0.4,0.6-0.7,1.6-0.8,3l-0.2,2.4l-0.3,6.4c0,0.8-0.1,1.6-0.1,2.1c-0.1,1.4-1.7,2.9-4.7,4.5l1.5-13.8
			c0.2-1.6,0.5-2.9,1-3.8c0.4-0.8,1.3-1.8,2.6-3c-2.7-0.2-3.9-1.7-3.6-4.3c0.2-2.3,1.2-3.5,3-3.7c-0.1,1.3,0.4,2,1.7,2.1l14,1.2
			c1.6,0.1,2.6,0.7,3,1.6c0.3,0.7,0.4,1.8,0.3,3.4L635.6,289.4z"/>
	</g>
</g>
<g>
	<g>
		<path class="st2" d="M138.5,838c0.6,0.2,1.1,0.6,1.5,1.3s0.6,1.7,0.6,3v11.5c0,0.4-0.1,0.7-0.4,0.9c-0.3,0.3-0.6,0.4-0.9,0.4
			c-0.4,0-0.7-0.1-0.9-0.4c-0.2-0.3-0.4-0.6-0.4-0.9v-1.9c-0.7,0.9-1.4,1.6-2.1,2.3c-0.8,0.6-1.6,0.9-2.5,0.9c-0.4,0-0.7-0.1-1-0.3
			c-0.3-0.2-0.4-0.5-0.4-0.9c0-0.3,0.1-0.6,0.3-0.8c0.2-0.2,0.5-0.4,0.8-0.4c1.1-0.1,2-0.5,2.8-1s1.5-1.3,2.1-2.3v-7.1
			c0-0.9-0.1-1.4-0.4-1.7c-0.3-0.3-0.7-0.4-1.3-0.4c-0.2,0-0.5,0-0.8,0.1c-0.3,0.1-0.6,0.2-0.9,0.3c-0.1,0-0.2,0.1-0.3,0.1
			c-0.2,0-0.4-0.1-0.6-0.3c-0.2-0.2-0.3-0.5-0.3-0.8c0-0.5,0.2-0.8,0.6-1c0.3-0.2,0.7-0.3,1.2-0.4c0.5-0.1,0.9-0.2,1.3-0.2
			C137.2,837.7,137.9,837.8,138.5,838z"/>
		<path class="st2" d="M145.2,847.7c-0.3-0.3-0.4-0.6-0.4-0.9v-7.7c0-0.4,0.1-0.7,0.4-0.9c0.2-0.3,0.6-0.4,0.9-0.4
			c0.4,0,0.7,0.1,0.9,0.4c0.3,0.3,0.4,0.6,0.4,0.9v7.7c0,0.4-0.1,0.7-0.4,0.9c-0.2,0.3-0.6,0.4-0.9,0.4S145.5,848,145.2,847.7z"/>
		<path class="st2" d="M165.1,853.8c0,0.2,0,0.3-0.1,0.5c-0.1,0.2-0.3,0.4-0.6,0.5c-0.3,0.1-0.6,0.1-1.1,0.1h-11.4
			c-0.3,0-0.6-0.1-0.8-0.3s-0.3-0.5-0.3-0.8c0-0.3,0.1-0.6,0.3-0.8c0.2-0.2,0.5-0.3,0.8-0.3h9.4l-10.6-12.9
			c-0.2-0.3-0.3-0.5-0.3-0.8c0-0.4,0.2-0.8,0.5-1.1c0.2-0.2,0.5-0.3,0.7-0.3c0.4,0,0.8,0.2,1.1,0.5l6.5,7.9l3.3-7.6
			c0.1-0.3,0.3-0.5,0.5-0.6c0.2-0.1,0.4-0.2,0.6-0.2s0.4,0.1,0.6,0.2c0.2,0.1,0.4,0.3,0.5,0.5c0.1,0.2,0.1,0.4,0.1,0.6
			c0,0.2,0,0.4-0.1,0.6l-3.8,8.6l3.6,4.4C164.9,853.1,165.1,853.5,165.1,853.8z"/>
		<path class="st2" d="M167,854.7c-0.2-0.2-0.4-0.5-0.4-0.8c0-0.3,0.1-0.6,0.4-0.8c0.2-0.2,0.5-0.3,0.9-0.3h1.3
			c0.8,0,1.4-0.3,1.7-0.8c0.3-0.5,0.5-1.5,0.5-2.8v-8.9h-2.2c-0.3,0-0.6-0.1-0.9-0.3c-0.2-0.2-0.4-0.5-0.4-0.8
			c0-0.3,0.1-0.6,0.4-0.8s0.5-0.3,0.9-0.3h3c0.5,0,0.9,0.1,1.2,0.4c0.3,0.3,0.5,0.7,0.5,1.1v9.7c0,1.5-0.2,2.6-0.5,3.5
			s-0.8,1.5-1.5,1.9c-0.7,0.4-1.6,0.6-2.8,0.6h-1.3C167.5,855,167.2,854.9,167,854.7z"/>
		<path class="st2" d="M180.8,854.4c-0.1-0.2-0.2-0.4-0.2-0.7c0-0.2,0-0.4,0.1-0.6l6.3-12.9h-8.7c-0.5,0-0.8-0.1-1-0.3
			c-0.2-0.2-0.3-0.5-0.3-1V835c0-0.4,0.1-0.7,0.4-0.9c0.2-0.3,0.5-0.4,0.9-0.4c0.3,0,0.6,0.1,0.9,0.4c0.3,0.3,0.4,0.6,0.4,0.9v2.8
			h8.6c0.5,0,0.9,0.2,1.2,0.5c0.3,0.3,0.5,0.8,0.5,1.3c0,0.4-0.1,0.8-0.3,1.2l-6.5,13.5c-0.1,0.2-0.3,0.4-0.5,0.5
			c-0.2,0.1-0.4,0.2-0.7,0.2c-0.2,0-0.4,0-0.6-0.1C181.1,854.8,180.9,854.6,180.8,854.4z"/>
	</g>
</g>
</svg>
