<?xml version="1.0" encoding="utf-8"?>
<!-- Generator: Adobe Illustrator 19.1.1, SVG Export Plug-In . SVG Version: 6.00 Build 0)  -->
<svg version="1.1" id="Layer_1" xmlns="http://www.w3.org/2000/svg" xmlns:xlink="http://www.w3.org/1999/xlink" x="0px" y="0px"
	 viewBox="0 0 49.2 46.9" style="enable-background:new 0 0 49.2 46.9;" xml:space="preserve">
<style type="text/css">
	.st0{fill:#FFFFFF;}
</style>
<g>
	<path class="st0" d="M37.2,21.3c0,0.6,0.4,1.2,1.1,1.3c0.6,0,1.2-0.4,1.3-1.1c0-0.1,0-0.3,0-0.5c0-0.2,0-0.4,0-0.5
		c0-1.4-0.2-2.8-0.7-4.1c-0.6-1.7-1.6-3.2-2.8-4.5c-1.5-1.5-3.3-2.6-5.4-3.1c-1-0.2-2-0.4-3-0.4c-0.3,0-0.7,0-1.1,0
		c-0.3,0-0.7,0.1-1,0.1c-0.6,0.1-1.1,0.7-0.9,1.3c0.1,0.6,0.7,1.1,1.3,0.9c0.3,0,0.5-0.1,0.8-0.1c0,0,0.1,0,0.1,0c0.2,0,0.5,0,0.7,0
		c2.7,0,5.1,1.1,6.9,2.9c1.7,1.7,2.8,4.1,2.9,6.8v0.1c0,0.2,0,0.3,0,0.4C37.2,21,37.2,21.1,37.2,21.3z"/>
	<path class="st0" d="M43.7,21.9c0,0.6,0.4,1.2,1.1,1.3s1.2-0.4,1.3-1.1c0-0.5,0-1.1,0-1.6c0-1.1-0.1-2.1-0.2-3.1
		c-0.6-3.9-2.5-7.4-5.2-10c-3-3-7.1-5-11.6-5.4c-0.5,0-1,0-1.5,0C27,2,26.5,2,26,2c-0.5,0-1.1,0.1-1.6,0.2c-0.6,0.1-1.1,0.7-0.9,1.3
		c0.1,0.6,0.7,1.1,1.3,0.9c0.3,0,0.6-0.1,1-0.1c0.1,0,0.3,0,0.4,0c0.5,0,1,0,1.4,0c1.6,0,3.2,0.2,4.7,0.7c2.6,0.8,4.9,2.2,6.8,4.1
		c1.5,1.5,2.8,3.4,3.6,5.5c0.7,1.8,1.2,3.9,1.2,6c0,0.1,0,0.3,0,0.5C43.8,21.3,43.7,21.6,43.7,21.9z"/>
	<path class="st0" d="M48,35l-8.6-4.6c-2.9-1.5-3-0.5-6,2.7c-0.7,0.8-2.1,2.8-3.7,2.4c-3.3-0.8-9.6-5.7-11.6-7.9
		c-1-1.1-5.1-6.1-5.2-7.8c-0.1-2.5,5.4-3.8,3.6-8.6l-3.8-8.6C9.2-5.6-0.8,7.6,0,13.7c2.1,15.1,28.7,39.6,43.5,31.6
		C46.8,43.4,51.3,37,48,35z"/>
</g>
</svg>
